<?xml version="1.0" ?><!DOCTYPE svg  PUBLIC '-//W3C//DTD SVG 1.1//EN'  'http://www.w3.org/Graphics/SVG/1.1/DTD/svg11.dtd'><svg enable-background="new 0 0 512 512" height="512px" id="Calque_1" version="1.1" viewBox="0 0 512 512" width="512px" xml:space="preserve" xmlns="http://www.w3.org/2000/svg" xmlns:xlink="http://www.w3.org/1999/xlink"><g><path d="M386.184,182.879h34.307c2.209,0,4-1.791,4-4V41.115c0-2.209-1.791-4-4-4h-34.307c-2.209,0-4,1.791-4,4v137.764   C382.184,181.088,383.975,182.879,386.184,182.879z M390.184,45.115h26.307v129.764h-26.307V45.115z"/><path d="M330.906,182.88h34.306c2.209,0,4-1.791,4-4v-79.66c0-2.209-1.791-4-4-4h-34.306c-2.209,0-4,1.791-4,4v79.66   C326.906,181.089,328.697,182.88,330.906,182.88z M334.906,103.219h26.306v71.66h-26.306V103.219z"/><path d="M275.631,182.879h34.302c2.209,0,4-1.791,4-4V84.12c0-2.209-1.791-4-4-4h-34.302c-2.209,0-4,1.791-4,4v94.759   C271.631,181.088,273.422,182.879,275.631,182.879z M279.631,88.12h26.302v86.759h-26.302V88.12z"/><path d="M258.656,178.88v-51.686c0-2.209-1.791-4-4-4H220.35c-2.209,0-4,1.791-4,4v51.686c0,2.209,1.791,4,4,4h34.306   C256.865,182.88,258.656,181.089,258.656,178.88z M250.656,174.88H224.35v-43.686h26.306V174.88z"/><path d="M340.48,377.24h-2.748l-0.001-6.169c23.621-4.761,43.828-19.063,56.409-38.699l35.238-0.075   c6.126-0.015,11.885-1.614,16.895-4.402c7.185-3.996,12.819-10.445,15.775-18.205c1.482-3.889,2.3-8.101,2.292-12.503   l-0.53-246.799c-0.021-9.358-3.686-18.147-10.315-24.748c-5.292-5.269-11.971-8.634-19.209-9.769   c-0.073-0.012-0.145-0.027-0.219-0.038c-0.359-0.054-0.722-0.095-1.084-0.138c-0.235-0.028-0.468-0.063-0.704-0.086   c-0.138-0.014-0.277-0.02-0.415-0.032c-1.019-0.089-2.047-0.144-3.089-0.144c-0.023,0-0.049,0-0.072,0   c-0.014,0-0.025,0.004-0.039,0.004l-217.204,0.46c-0.018,0-0.036,0.001-0.054,0.001c-0.58,0.002-1.158,0.018-1.733,0.048   c-0.067,0.003-0.132,0.011-0.199,0.015c-8.61,0.498-16.63,4.09-22.762,10.248c-6.602,6.63-10.227,15.436-10.207,24.795   c0,0.013,0.004,0.025,0.004,0.039l0.201,95.29H87.993c-0.021,0-0.044,0-0.065,0c-0.003,0-0.006,0-0.009,0   c-9.357,0.02-18.147,3.683-24.75,10.314c-6.6,6.628-10.225,15.43-10.208,24.783c0,0.001,0,0.002,0,0.003v106.765   c0,0.005,0.001,0.009,0.001,0.013c0.007,15.716,12.777,28.5,28.486,28.532c0.019,0.001,0.035,0.006,0.054,0.006h39.018   c6.239,9.699,17.12,16.14,29.476,16.14c0.022,0,0.045,0,0.068,0c0.002,0,0.005,0,0.007,0c0,0,0.001,0,0.001,0l31.032-0.067   c0.013,0,0.025-0.004,0.039-0.004l65.76-0.136c12.595,19.477,32.712,33.654,56.207,38.39l-0.001,6.172h-2.749c-2.209,0-4,1.791-4,4   l-0.001,91.299c0.001,13.267,10.795,24.06,24.06,24.06h0.008c0.001,0,0.001,0,0.002,0c6.426,0,12.467-2.504,17.01-7.049   c1.63-1.632,2.993-3.459,4.075-5.425c0.049-0.087,0.101-0.172,0.147-0.26c0.084-0.156,0.159-0.315,0.239-0.474   c0.096-0.19,0.196-0.379,0.288-0.572c0.044-0.095,0.083-0.191,0.127-0.287c0.118-0.26,0.237-0.519,0.347-0.782   c0.007-0.016,0.012-0.032,0.019-0.047c0.438-1.066,0.8-2.164,1.081-3.287c0.018-0.072,0.031-0.147,0.049-0.221   c0.165-0.688,0.305-1.385,0.408-2.09c0.002-0.011,0.003-0.021,0.005-0.033c0.169-1.159,0.256-2.34,0.256-3.533V381.24   c0-1.061-0.422-2.078-1.172-2.828C342.558,377.661,341.54,377.24,340.48,377.24z M81.547,308.748c-0.013,0-0.025-0.004-0.039-0.004   c-11.329,0-20.546-9.218-20.546-20.547c0-0.003-0.001-0.007-0.001-0.01V181.432c0-0.001,0-0.002,0-0.004s0-0.002,0-0.004   c-0.016-7.221,2.782-14.017,7.877-19.134c5.095-5.117,11.877-7.944,19.097-7.959c0.02,0,0.038,0,0.058,0   c14.879,0,27.003,12.09,27.035,26.977v115.954c-0.036,0.218-0.066,0.437-0.065,0.664c0.009,3.777,0.625,7.412,1.744,10.821H81.547z    M150.054,324.887c-0.02,0-0.038,0-0.058,0c-14.704,0-26.709-11.813-27.019-26.462c0.021-0.168,0.051-0.334,0.051-0.508V181.3   c0-0.001,0-0.003,0-0.004s0-0.003,0-0.004c-0.023-10.845-4.999-20.544-12.776-26.959h66.474l0.302,143.462   c0,0.003,0.001,0.005,0.001,0.008c0.014,7.219-2.783,14.011-7.876,19.127C164.058,322.047,157.276,324.873,150.054,324.887z    M181.092,324.816c-0.013,0-0.025,0.004-0.039,0.004l-8.713,0.019c0.857-0.712,1.687-1.466,2.483-2.266   c6.603-6.631,10.227-15.437,10.207-24.795c0-0.003-0.001-0.007-0.001-0.01l-0.52-246.782   c-0.034-14.736,11.797-26.776,26.472-27.077c0.167-0.003,0.332-0.013,0.499-0.014l217.239-0.46c0.021,0,0.042,0,0.064,0   c0.885,0,1.763,0.043,2.633,0.127c0.015,0.001,0.031,0.002,0.046,0.003c0.238,0.023,0.474,0.058,0.711,0.087   c0.224,0.028,0.448,0.052,0.67,0.085c0.097,0.014,0.191,0.034,0.287,0.049c12.818,2.086,22.65,13.217,22.679,26.62   c0,0.003,0.001,0.006,0.001,0.01l0.53,246.753c0,0.01-0.003,0.02-0.003,0.029c0.007,3.369-0.611,6.595-1.736,9.574   c-2.472,6.543-7.409,11.887-13.677,14.887c-3.507,1.677-7.428,2.622-11.566,2.631c-0.014,0-0.025,0.004-0.039,0.004l-30.629,0.065   c5.895-11.763,9.219-25.027,9.219-39.055c-0.001-48.241-39.247-87.487-87.486-87.487c-48.238,0.002-87.486,39.25-87.489,87.489   c0.001,14.157,3.386,27.537,9.382,39.38L181.092,324.816z M336.48,472.541c0,4.289-1.67,8.322-4.701,11.356   c-0.106,0.106-0.224,0.198-0.332,0.302c-2.993,2.833-6.882,4.401-11.021,4.401h-0.006c-8.855,0-16.06-7.204-16.061-16.06   l0.001-87.299h2.747c0.001,0,0.001,0,0.002,0l26.623,0.002c0.013,0,0.025-0.004,0.038-0.004h2.709V472.541z M311.11,377.241v-4.942   c3.061,0.325,6.167,0.496,9.313,0.496c3.145,0,6.249-0.171,9.309-0.496l0.001,4.942H311.11z M320.422,364.795   c-43.828-0.002-79.486-35.659-79.489-79.485c0.003-43.829,35.661-79.487,79.489-79.489c43.828,0,79.485,35.658,79.486,79.487   C399.907,329.135,364.25,364.793,320.422,364.795z"/><path d="M362.383,250.062l-62.006,62.007l-21.911-21.911c-1.561-1.563-4.096-1.563-5.656,0c-1.563,1.562-1.563,4.095,0,5.656   l24.739,24.739c0.78,0.781,1.805,1.172,2.828,1.172s2.048-0.391,2.828-1.172l64.834-64.834c1.563-1.563,1.563-4.095,0-5.657   C366.477,248.5,363.944,248.5,362.383,250.062z"/><path d="M49.804,78.706l3.248,0.573c0.161,1.16,0.362,2.31,0.604,3.449l-2.851,1.647c-4.476,2.584-6.017,8.331-3.434,12.813   l5.914,10.242c1.733,3.006,4.893,4.689,8.14,4.689c1.589,0,3.199-0.403,4.673-1.252l2.862-1.653   c0.868,0.782,1.761,1.531,2.676,2.246l-1.127,3.099c-0.856,2.351-0.743,4.899,0.319,7.175c1.062,2.274,2.939,3.997,5.283,4.847   l11.118,4.049c1.055,0.383,2.134,0.565,3.196,0.565c3.834,0,7.44-2.368,8.823-6.171l1.13-3.104   c0.582,0.021,1.165,0.043,1.746,0.043c0.584,0,1.167-0.022,1.75-0.043l1.129,3.102c1.383,3.805,4.988,6.174,8.823,6.173   c1.063,0,2.143-0.182,3.198-0.565l11.113-4.047c2.35-0.853,4.228-2.577,5.288-4.853c1.06-2.274,1.172-4.821,0.318-7.169   l-1.128-3.101c0.917-0.717,1.811-1.466,2.677-2.247l2.859,1.65c1.441,0.832,3.042,1.256,4.666,1.256   c0.819,0,1.644-0.108,2.457-0.326c2.423-0.651,4.444-2.202,5.688-4.362l5.917-10.246c2.584-4.48,1.042-10.227-3.433-12.811   l-2.853-1.649c0.242-1.141,0.443-2.292,0.604-3.449l3.25-0.572c5.09-0.898,8.502-5.771,7.607-10.865l-2.055-11.646   c-0.895-5.088-5.764-8.502-10.864-7.61l-3.245,0.572c-0.548-1.029-1.132-2.038-1.751-3.027l2.118-2.525   c1.604-1.914,2.368-4.344,2.149-6.843c-0.219-2.501-1.394-4.763-3.309-6.369l-9.056-7.596c-1.914-1.612-4.344-2.376-6.849-2.162   c-2.502,0.218-4.765,1.394-6.368,3.309l-2.112,2.519c-1.083-0.438-2.183-0.838-3.296-1.198v-3.291c0-5.17-4.207-9.376-9.378-9.376   h-11.83c-5.17,0-9.376,4.206-9.376,9.376v3.289c-1.115,0.36-2.215,0.76-3.298,1.199l-2.111-2.517   c-1.605-1.917-3.866-3.092-6.368-3.31c-2.494-0.219-4.927,0.545-6.844,2.152l-9.064,7.604c-3.958,3.322-4.477,9.248-1.156,13.208   l2.118,2.527c-0.62,0.99-1.205,2-1.752,3.029l-3.246-0.572c-5.088-0.891-9.962,2.524-10.859,7.61l-2.054,11.648   c-0.434,2.461,0.119,4.948,1.558,7.003C45.196,76.902,47.344,78.273,49.804,78.706z M50.078,69.232l2.054-11.648   c0.129-0.736,0.869-1.253,1.597-1.119l6.185,1.09c0.117,0.021,0.232,0.016,0.349,0.025c0.114,0.01,0.228,0.036,0.341,0.036   c0.026,0,0.051-0.005,0.077-0.005c0.047-0.001,0.093-0.007,0.14-0.01c0.194-0.01,0.385-0.035,0.575-0.073   c0.061-0.013,0.121-0.024,0.181-0.039c0.223-0.056,0.442-0.125,0.652-0.218c0.001-0.001,0.003-0.001,0.004-0.002   c0.215-0.096,0.419-0.215,0.615-0.348c0.044-0.03,0.086-0.063,0.129-0.095c0.148-0.109,0.289-0.229,0.422-0.36   c0.043-0.042,0.087-0.082,0.128-0.126c0.151-0.162,0.292-0.333,0.416-0.522c0.02-0.03,0.037-0.061,0.056-0.091   c0.091-0.147,0.178-0.298,0.251-0.46c1.121-2.473,2.499-4.856,4.097-7.083c0.053-0.073,0.085-0.154,0.132-0.229   c0.079-0.126,0.158-0.251,0.221-0.384c0.055-0.114,0.095-0.231,0.138-0.348c0.045-0.125,0.092-0.248,0.125-0.376   c0.033-0.127,0.051-0.255,0.071-0.384c0.02-0.125,0.04-0.249,0.047-0.375c0.007-0.128,0.002-0.254-0.003-0.382   c-0.005-0.13-0.009-0.259-0.026-0.388c-0.017-0.123-0.045-0.243-0.074-0.364c-0.03-0.129-0.059-0.257-0.102-0.384   c-0.042-0.124-0.097-0.24-0.15-0.359c-0.052-0.116-0.102-0.231-0.166-0.342c-0.072-0.126-0.159-0.243-0.245-0.361   c-0.053-0.073-0.093-0.153-0.152-0.224l-4.04-4.82c-0.48-0.573-0.404-1.462,0.167-1.941l9.062-7.602   c0.377-0.316,0.794-0.333,1.009-0.313c0.213,0.019,0.618,0.105,0.931,0.479l4.037,4.813c0.017,0.02,0.038,0.034,0.055,0.054   c0.152,0.174,0.314,0.335,0.491,0.478c0.051,0.042,0.106,0.075,0.159,0.114c0.135,0.099,0.275,0.189,0.42,0.271   c0.074,0.042,0.148,0.081,0.225,0.118c0.165,0.078,0.334,0.145,0.508,0.2c0.053,0.017,0.104,0.037,0.158,0.051   c0.2,0.055,0.405,0.09,0.612,0.113c0.073,0.008,0.146,0.011,0.219,0.015c0.074,0.004,0.148,0.016,0.223,0.016   c0.056,0,0.112-0.016,0.167-0.019c0.176-0.008,0.35-0.028,0.524-0.059c0.101-0.018,0.2-0.035,0.301-0.061   c0.19-0.049,0.374-0.117,0.557-0.195c0.062-0.026,0.125-0.036,0.187-0.065c2.447-1.181,5.031-2.121,7.681-2.792   c0.091-0.023,0.171-0.065,0.259-0.094c0.139-0.045,0.277-0.088,0.408-0.148c0.118-0.053,0.226-0.119,0.337-0.183   c0.112-0.065,0.225-0.127,0.331-0.203c0.109-0.078,0.208-0.166,0.308-0.254c0.093-0.082,0.187-0.161,0.271-0.25   c0.09-0.095,0.168-0.198,0.248-0.301c0.079-0.101,0.157-0.2,0.226-0.308c0.068-0.107,0.123-0.22,0.181-0.333   c0.059-0.116,0.119-0.231,0.167-0.354c0.048-0.124,0.082-0.251,0.118-0.379c0.034-0.12,0.07-0.238,0.092-0.362   c0.026-0.146,0.034-0.294,0.044-0.443c0.006-0.089,0.027-0.175,0.027-0.266v-6.284c0-0.746,0.63-1.376,1.376-1.376h11.83   c0.747,0,1.378,0.63,1.378,1.376v6.284c0,0.097,0.022,0.188,0.028,0.283c0.01,0.143,0.018,0.284,0.043,0.423   c0.023,0.127,0.06,0.248,0.094,0.371c0.036,0.126,0.068,0.252,0.116,0.374c0.048,0.122,0.107,0.235,0.167,0.352   c0.058,0.114,0.114,0.228,0.183,0.336c0.067,0.105,0.144,0.201,0.22,0.299c0.082,0.106,0.163,0.212,0.256,0.311   c0.081,0.085,0.169,0.16,0.257,0.238c0.105,0.093,0.209,0.186,0.325,0.268c0.098,0.069,0.203,0.127,0.306,0.188   c0.119,0.069,0.236,0.14,0.363,0.197c0.12,0.054,0.247,0.093,0.373,0.136c0.097,0.033,0.187,0.079,0.288,0.104   c2.646,0.671,5.231,1.61,7.682,2.792c0.066,0.032,0.136,0.043,0.203,0.071c0.175,0.073,0.35,0.139,0.53,0.186   c0.109,0.028,0.217,0.047,0.326,0.066c0.164,0.028,0.327,0.047,0.492,0.055c0.061,0.003,0.123,0.021,0.184,0.021   c0.082,0,0.163-0.012,0.244-0.017c0.061-0.003,0.122-0.006,0.182-0.013c0.228-0.024,0.453-0.062,0.672-0.125   c0.019-0.005,0.036-0.014,0.055-0.02c0.201-0.061,0.395-0.139,0.583-0.23c0.063-0.031,0.125-0.064,0.188-0.099   c0.166-0.091,0.325-0.193,0.478-0.308c0.037-0.027,0.075-0.05,0.11-0.078c0.187-0.15,0.358-0.32,0.517-0.504   c0.012-0.014,0.027-0.024,0.04-0.039l4.037-4.814c0.311-0.372,0.716-0.458,0.93-0.477c0.217-0.02,0.629-0.003,1.007,0.315   l9.063,7.602c0.374,0.313,0.461,0.721,0.48,0.936c0.019,0.215,0.003,0.632-0.31,1.006l-4.041,4.818   c-0.054,0.064-0.09,0.138-0.139,0.205c-0.092,0.125-0.185,0.249-0.261,0.382c-0.061,0.107-0.108,0.218-0.159,0.329   c-0.056,0.123-0.112,0.243-0.155,0.37c-0.043,0.126-0.072,0.254-0.102,0.383c-0.028,0.12-0.057,0.238-0.073,0.36   c-0.018,0.134-0.022,0.267-0.027,0.402c-0.004,0.122-0.01,0.242-0.003,0.364c0.008,0.136,0.029,0.269,0.051,0.403   c0.019,0.119,0.036,0.236,0.065,0.353c0.036,0.143,0.087,0.28,0.139,0.418c0.039,0.102,0.073,0.204,0.12,0.303   c0.072,0.152,0.161,0.295,0.252,0.438c0.039,0.062,0.065,0.127,0.108,0.188c1.594,2.222,2.973,4.606,4.099,7.086   c0.187,0.411,0.438,0.769,0.73,1.08c0.035,0.037,0.072,0.071,0.108,0.106c0.139,0.137,0.287,0.263,0.443,0.377   c0.039,0.029,0.076,0.058,0.116,0.085c0.198,0.134,0.403,0.255,0.621,0.351c0,0,0.001,0,0.001,0   c0.21,0.093,0.429,0.163,0.652,0.218c0.062,0.016,0.124,0.028,0.187,0.041c0.186,0.037,0.375,0.062,0.565,0.072   c0.05,0.002,0.098,0.01,0.147,0.01c0.025,0,0.049,0.005,0.074,0.005c0.11,0,0.22-0.026,0.331-0.035   c0.12-0.01,0.239-0.005,0.361-0.026l6.182-1.089c0.732-0.133,1.471,0.381,1.602,1.119l2.055,11.646   c0.129,0.737-0.383,1.469-1.117,1.599l-6.195,1.09c-0.099,0.018-0.188,0.056-0.285,0.08c-0.133,0.034-0.265,0.064-0.392,0.111   c-0.128,0.046-0.247,0.106-0.368,0.165c-0.111,0.054-0.222,0.105-0.327,0.168c-0.12,0.073-0.229,0.156-0.34,0.241   c-0.094,0.071-0.189,0.14-0.277,0.22c-0.1,0.091-0.189,0.19-0.279,0.291c-0.083,0.092-0.167,0.183-0.241,0.283   c-0.076,0.102-0.14,0.21-0.206,0.319c-0.068,0.112-0.137,0.223-0.194,0.343c-0.055,0.114-0.096,0.234-0.14,0.354   c-0.045,0.124-0.092,0.246-0.126,0.375c-0.033,0.13-0.05,0.264-0.07,0.398c-0.015,0.1-0.045,0.194-0.053,0.296   c-0.205,2.729-0.68,5.441-1.412,8.06c-0.026,0.092-0.029,0.183-0.048,0.275c-0.028,0.139-0.059,0.276-0.072,0.416   c-0.013,0.134-0.011,0.265-0.011,0.396c0,0.125-0.001,0.249,0.011,0.372c0.013,0.14,0.041,0.274,0.068,0.41   c0.024,0.116,0.045,0.23,0.079,0.344c0.039,0.131,0.09,0.256,0.143,0.382c0.046,0.112,0.091,0.224,0.147,0.333   c0.062,0.117,0.134,0.227,0.207,0.337c0.069,0.104,0.135,0.208,0.214,0.307c0.085,0.107,0.182,0.204,0.279,0.302   c0.084,0.086,0.166,0.172,0.259,0.251c0.114,0.097,0.24,0.179,0.366,0.264c0.072,0.048,0.133,0.107,0.21,0.151l5.439,3.144   c0.647,0.374,0.878,1.237,0.505,1.884l-5.918,10.249c-0.242,0.42-0.625,0.577-0.833,0.632c-0.208,0.056-0.622,0.113-1.048-0.132   l-5.448-3.145c-0.072-0.042-0.149-0.063-0.222-0.1c-0.141-0.07-0.281-0.14-0.428-0.193c-0.113-0.041-0.227-0.067-0.342-0.097   c-0.134-0.035-0.266-0.07-0.402-0.091c-0.127-0.02-0.253-0.025-0.381-0.033c-0.128-0.007-0.255-0.015-0.384-0.01   c-0.128,0.005-0.252,0.023-0.378,0.041c-0.129,0.018-0.257,0.034-0.384,0.064c-0.122,0.029-0.238,0.07-0.357,0.11   c-0.125,0.042-0.249,0.083-0.369,0.138c-0.12,0.055-0.233,0.122-0.348,0.188c-0.108,0.063-0.216,0.122-0.319,0.196   c-0.12,0.085-0.23,0.185-0.341,0.284c-0.066,0.059-0.139,0.104-0.202,0.168c-1.913,1.955-4.021,3.725-6.268,5.262   c-0.067,0.046-0.119,0.104-0.183,0.154c-0.126,0.099-0.252,0.196-0.365,0.308c-0.083,0.081-0.153,0.169-0.227,0.256   c-0.093,0.109-0.185,0.217-0.266,0.335c-0.068,0.101-0.125,0.206-0.184,0.312c-0.066,0.119-0.132,0.237-0.186,0.362   c-0.047,0.11-0.082,0.222-0.119,0.335c-0.043,0.132-0.085,0.263-0.115,0.398c-0.024,0.114-0.037,0.229-0.051,0.344   c-0.018,0.139-0.035,0.276-0.038,0.417c-0.003,0.124,0.008,0.246,0.018,0.37c0.01,0.133,0.018,0.264,0.041,0.396   c0.024,0.138,0.064,0.271,0.103,0.407c0.026,0.09,0.036,0.182,0.069,0.271l2.15,5.911c0.168,0.461,0.04,0.859-0.051,1.055   c-0.091,0.195-0.311,0.546-0.771,0.713l-11.114,4.047c-0.704,0.254-1.512-0.122-1.768-0.825l-2.152-5.911   c-0.038-0.105-0.097-0.195-0.143-0.294c-0.051-0.111-0.097-0.223-0.158-0.327c-0.075-0.131-0.163-0.25-0.251-0.37   c-0.064-0.087-0.125-0.176-0.196-0.258c-0.1-0.115-0.21-0.217-0.322-0.319c-0.079-0.072-0.155-0.146-0.239-0.212   c-0.113-0.088-0.232-0.162-0.354-0.237c-0.1-0.063-0.198-0.125-0.304-0.179c-0.117-0.059-0.237-0.104-0.358-0.151   c-0.121-0.047-0.241-0.095-0.367-0.13c-0.121-0.034-0.245-0.053-0.369-0.076c-0.132-0.023-0.262-0.049-0.397-0.059   c-0.131-0.01-0.263-0.004-0.396-0.001c-0.102,0.002-0.201-0.011-0.304,0c-2.666,0.264-5.468,0.267-8.18,0   c-0.091-0.009-0.179,0.004-0.269,0.001c-0.149-0.004-0.297-0.01-0.444,0.002c-0.113,0.009-0.222,0.031-0.333,0.049   c-0.147,0.025-0.292,0.05-0.435,0.09c-0.106,0.031-0.208,0.071-0.311,0.11c-0.139,0.052-0.276,0.105-0.408,0.172   c-0.096,0.049-0.185,0.106-0.276,0.162c-0.127,0.078-0.253,0.157-0.372,0.25c-0.086,0.067-0.164,0.142-0.244,0.216   c-0.107,0.098-0.213,0.196-0.309,0.306c-0.081,0.093-0.151,0.194-0.224,0.294c-0.077,0.106-0.154,0.21-0.221,0.325   c-0.074,0.127-0.133,0.264-0.193,0.401c-0.035,0.08-0.083,0.15-0.113,0.234l-2.153,5.914c-0.255,0.701-1.064,1.077-1.766,0.824   l-11.119-4.049c-0.456-0.166-0.676-0.517-0.767-0.712c-0.091-0.196-0.22-0.594-0.052-1.055l2.15-5.91   c0.031-0.086,0.041-0.173,0.066-0.26c0.042-0.143,0.084-0.284,0.109-0.428c0.021-0.125,0.028-0.249,0.038-0.373   c0.01-0.132,0.022-0.263,0.019-0.395c-0.003-0.133-0.02-0.261-0.036-0.392c-0.015-0.125-0.029-0.249-0.056-0.372   c-0.028-0.126-0.068-0.248-0.107-0.371c-0.04-0.123-0.078-0.244-0.128-0.363c-0.05-0.116-0.112-0.224-0.172-0.334   c-0.063-0.115-0.125-0.229-0.199-0.338c-0.075-0.109-0.161-0.209-0.247-0.311c-0.081-0.095-0.158-0.191-0.248-0.28   c-0.106-0.104-0.224-0.194-0.341-0.287c-0.07-0.055-0.128-0.12-0.203-0.17c-2.231-1.522-4.339-3.291-6.264-5.258   c-0.077-0.079-0.167-0.136-0.249-0.208c-0.092-0.08-0.18-0.162-0.278-0.232c-0.123-0.088-0.251-0.161-0.381-0.234   c-0.095-0.053-0.187-0.108-0.285-0.153c-0.14-0.064-0.283-0.112-0.427-0.16c-0.1-0.033-0.198-0.067-0.3-0.092   c-0.144-0.035-0.288-0.054-0.434-0.073c-0.11-0.014-0.22-0.03-0.332-0.035c-0.141-0.006-0.28,0.002-0.421,0.011   c-0.117,0.007-0.233,0.012-0.35,0.03c-0.143,0.021-0.281,0.058-0.42,0.095c-0.111,0.029-0.221,0.055-0.331,0.094   c-0.145,0.052-0.284,0.121-0.423,0.19c-0.076,0.038-0.155,0.06-0.229,0.103l-5.445,3.144c-0.648,0.375-1.513,0.143-1.888-0.505   l-5.913-10.242c-0.375-0.649-0.144-1.513,0.505-1.888l5.438-3.143c0.079-0.046,0.143-0.107,0.218-0.157   c0.122-0.082,0.244-0.162,0.355-0.256c0.098-0.083,0.183-0.173,0.271-0.263c0.092-0.094,0.184-0.187,0.266-0.289   c0.083-0.104,0.153-0.213,0.226-0.324c0.068-0.105,0.137-0.208,0.195-0.319c0.06-0.115,0.108-0.234,0.156-0.354   c0.049-0.119,0.097-0.236,0.134-0.36c0.036-0.121,0.059-0.244,0.084-0.367c0.025-0.128,0.052-0.255,0.064-0.387   c0.013-0.132,0.011-0.263,0.011-0.396c0-0.125,0.002-0.248-0.01-0.373c-0.014-0.147-0.045-0.292-0.076-0.438   c-0.018-0.087-0.021-0.174-0.045-0.26c-0.729-2.601-1.204-5.312-1.411-8.058c-0.007-0.092-0.035-0.177-0.047-0.267   c-0.021-0.146-0.04-0.291-0.077-0.432c-0.032-0.122-0.076-0.236-0.118-0.353c-0.046-0.127-0.09-0.253-0.148-0.374   c-0.055-0.115-0.121-0.221-0.186-0.328c-0.068-0.114-0.136-0.226-0.215-0.333c-0.073-0.097-0.154-0.185-0.235-0.275   c-0.091-0.103-0.182-0.204-0.284-0.296c-0.087-0.08-0.182-0.148-0.276-0.22c-0.11-0.083-0.219-0.166-0.338-0.238   c-0.109-0.066-0.226-0.12-0.342-0.176c-0.114-0.055-0.227-0.112-0.348-0.156c-0.141-0.052-0.287-0.086-0.434-0.122   c-0.084-0.021-0.161-0.055-0.248-0.07l-6.195-1.093c-0.481-0.084-0.76-0.393-0.883-0.569   C50.188,70.082,49.993,69.714,50.078,69.232z"/><path d="M102.124,101.603c16.381,0,29.708-13.327,29.708-29.708s-13.327-29.708-29.708-29.708S72.416,55.514,72.416,71.895   S85.743,101.603,102.124,101.603z M102.124,50.187c11.97,0,21.708,9.738,21.708,21.708s-9.738,21.708-21.708,21.708   s-21.708-9.738-21.708-21.708S90.155,50.187,102.124,50.187z"/><path d="M285.126,449.037L41.694,327.225c-0.948-0.474-2.048-0.552-3.054-0.218c-1.007,0.335-1.839,1.057-2.313,2.005   l-21.421,42.809c-0.989,1.976-0.188,4.379,1.787,5.367L260.125,499c0.562,0.28,1.175,0.423,1.79,0.423   c0.426,0,0.853-0.068,1.264-0.205c1.007-0.335,1.839-1.057,2.313-2.005l21.421-42.809   C287.902,452.428,287.102,450.025,285.126,449.037z M260.128,490.055l-6.713-3.359l8.93-17.843   c0.988-1.976,0.188-4.378-1.787-5.367c-1.975-0.986-4.378-0.188-5.367,1.787l-8.93,17.843l-6.328-3.166l4.875-9.744   c0.989-1.976,0.188-4.379-1.787-5.367c-1.976-0.987-4.379-0.188-5.367,1.787l-4.875,9.744l-6.328-3.166l8.931-17.846   c0.989-1.976,0.188-4.379-1.787-5.367c-1.974-0.986-4.378-0.189-5.367,1.787l-8.931,17.846l-6.327-3.166l4.877-9.745   c0.989-1.976,0.188-4.379-1.787-5.367c-1.975-0.987-4.378-0.189-5.367,1.787l-4.877,9.745l-6.328-3.166l8.932-17.848   c0.989-1.976,0.188-4.378-1.787-5.367c-1.974-0.986-4.378-0.189-5.367,1.787l-8.933,17.848l-6.327-3.166l4.879-9.747   c0.989-1.975,0.189-4.378-1.787-5.367c-1.975-0.986-4.379-0.189-5.368,1.787l-4.879,9.747l-6.327-3.166l8.932-17.848   c0.989-1.976,0.188-4.378-1.787-5.367c-1.974-0.985-4.378-0.189-5.367,1.787l-8.932,17.848l-6.328-3.166l4.879-9.749   c0.989-1.976,0.188-4.378-1.787-5.367c-1.974-0.986-4.378-0.189-5.367,1.787l-4.879,9.749l-6.326-3.166l8.933-17.85   c0.989-1.976,0.188-4.378-1.787-5.367c-1.975-0.987-4.378-0.189-5.367,1.787l-8.933,17.851l-6.092-3.049l4.88-9.75   c0.989-1.975,0.189-4.378-1.787-5.367c-1.975-0.986-4.378-0.189-5.368,1.787l-4.88,9.75l-6.328-3.166l8.935-17.853   c0.989-1.976,0.188-4.378-1.787-5.367c-1.974-0.986-4.378-0.19-5.367,1.787l-8.935,17.853l-6.327-3.166l4.88-9.753   c0.989-1.976,0.188-4.379-1.787-5.367c-1.975-0.987-4.379-0.188-5.367,1.787l-4.88,9.753l-6.327-3.166l8.935-17.852   c0.989-1.976,0.188-4.378-1.787-5.367c-1.975-0.986-4.378-0.189-5.367,1.787l-8.935,17.852l-6.328-3.166l4.881-9.755   c0.989-1.976,0.188-4.379-1.787-5.367c-1.977-0.987-4.379-0.188-5.367,1.787l-4.881,9.755l-6.326-3.166l8.936-17.854   c0.989-1.976,0.188-4.378-1.787-5.367c-1.974-0.985-4.378-0.189-5.367,1.787l-8.936,17.854l-6.329-3.167l4.882-9.757   c0.989-1.976,0.188-4.379-1.787-5.367c-1.976-0.986-4.378-0.189-5.367,1.787l-4.882,9.757l-6.326-3.166l8.938-17.856   c0.989-1.976,0.188-4.378-1.787-5.367c-1.975-0.986-4.379-0.189-5.368,1.787l-8.938,17.856l-6.94-3.473l17.841-35.654   l236.278,118.231L260.128,490.055z"/><path d="M497.463,348.494c-0.151-1.05-0.714-1.997-1.563-2.633l-24.022-17.97c-0.849-0.636-1.917-0.906-2.966-0.756   c-1.051,0.151-1.997,0.714-2.633,1.563l-8.355,11.17c-0.472-0.06-0.948-0.099-1.432-0.099c-3.553,0-6.945,1.697-9.075,4.541   c-2.525,3.377-2.869,7.713-1.293,11.327l-77.841,104.047c-0.028,0.037-0.044,0.079-0.07,0.117   c-0.082,0.118-0.153,0.242-0.223,0.369c-0.062,0.112-0.122,0.224-0.172,0.34c-0.048,0.112-0.085,0.229-0.123,0.347   c-0.046,0.142-0.088,0.282-0.117,0.427c-0.009,0.045-0.027,0.084-0.035,0.129l-5.484,32.371c-0.003,0.018-0.001,0.034-0.004,0.052   c-0.025,0.163-0.028,0.329-0.033,0.496c-0.003,0.099-0.017,0.198-0.013,0.296c0.006,0.133,0.034,0.265,0.053,0.397   c0.02,0.129,0.028,0.259,0.06,0.384c0.024,0.098,0.067,0.193,0.1,0.29c0.051,0.155,0.099,0.311,0.168,0.457   c0.008,0.017,0.011,0.033,0.019,0.05c0.094,0.191,0.202,0.369,0.32,0.539c0.022,0.032,0.051,0.062,0.074,0.094   c0.117,0.157,0.243,0.303,0.38,0.438c0.045,0.046,0.092,0.09,0.14,0.134c0.143,0.128,0.292,0.246,0.45,0.353   c0.036,0.024,0.07,0.053,0.107,0.076c0.195,0.122,0.4,0.224,0.612,0.311c0.056,0.022,0.112,0.04,0.169,0.061   c0.191,0.067,0.386,0.121,0.585,0.16c0.03,0.006,0.058,0.02,0.089,0.024c0.016,0.003,0.03,0.002,0.046,0.004   c0.206,0.033,0.415,0.054,0.625,0.054h0.001h0.001c0.276,0,0.546-0.036,0.81-0.092c0.073-0.015,0.145-0.039,0.217-0.059   c0.204-0.056,0.401-0.124,0.593-0.21c0.043-0.02,0.088-0.025,0.13-0.046l29.507-14.397c0.049-0.023,0.087-0.058,0.135-0.083   c0.123-0.066,0.24-0.142,0.355-0.221c0.106-0.072,0.211-0.146,0.309-0.227c0.099-0.082,0.189-0.171,0.279-0.263   c0.096-0.097,0.188-0.193,0.273-0.298c0.03-0.038,0.068-0.068,0.098-0.107l77.837-104.044c0.473,0.06,0.95,0.099,1.435,0.099   c3.554,0,6.945-1.698,9.072-4.542c2.527-3.378,2.871-7.717,1.292-11.331l8.36-11.173   C497.342,350.611,497.615,349.544,497.463,348.494z M371.245,487.443l3.089-18.233l13.531,10.124L371.245,487.443z    M394.701,474.456l-17.617-13.181l74.56-99.658l17.616,13.178L394.701,474.456z M480.649,369.173   c-0.635,0.848-1.606,1.334-2.666,1.334c-0.501,0-1.252-0.115-1.985-0.663l-21.504-16.085c-1.468-1.099-1.769-3.188-0.673-4.653   c0.636-0.849,1.608-1.335,2.671-1.335c0.341,0,0.801,0.065,1.289,0.272c0.05,0.023,0.103,0.037,0.152,0.06   c0.18,0.087,0.362,0.195,0.543,0.331l21.503,16.086c0.177,0.133,0.335,0.28,0.478,0.438c0.032,0.038,0.058,0.08,0.091,0.117   C481.496,366.23,481.584,367.923,480.649,369.173z M482.826,356.658l-17.615-13.178l5.077-6.787l17.616,13.178L482.826,356.658z"/></g></svg>