<?xml version="1.0" ?><svg id="Layer_1_1_" style="enable-background:new 0 0 64 64;" version="1.1" viewBox="0 0 64 64" xml:space="preserve" xmlns="http://www.w3.org/2000/svg" xmlns:xlink="http://www.w3.org/1999/xlink"><g/><path d="M32,2C15.458,2,2,15.458,2,32c0,5.665,1.597,11.146,4.595,15.919C4.979,49.834,4,52.304,4,55v6c0,0.553,0.448,1,1,1h20h14  h20c0.552,0,1-0.447,1-1v-6c0-2.696-0.979-5.166-2.595-7.081C60.403,43.146,62,37.665,62,32C62,15.458,48.542,2,32,2z M24,60H6v-5  c0-4.963,4.038-9,9-9s9,4.037,9,9V60z M23.12,47.605C23.796,43.242,27.536,40,32,40s8.204,3.242,8.88,7.605  C39.098,49.561,38,52.152,38,55v5H26v-5C26,52.152,24.902,49.561,23.12,47.605z M58,60H40v-5c0-4.963,4.038-9,9-9s9,4.037,9,9V60z   M55.944,46.478c-0.836-0.682-1.774-1.241-2.786-1.656C55.457,43.415,57,40.887,57,38c0-4.411-3.589-8-8-8s-8,3.589-8,8  c0,2.887,1.543,5.415,3.843,6.822c-0.802,0.329-1.553,0.753-2.247,1.253c-0.911-3.329-3.317-5.986-6.433-7.256  C38.459,37.411,40,34.885,40,32c0-4.411-3.589-8-8-8s-8,3.589-8,8c0,2.885,1.541,5.411,3.837,6.819  c-3.115,1.27-5.522,3.927-6.433,7.256c-0.694-0.5-1.445-0.924-2.247-1.253C21.457,43.415,23,40.887,23,38c0-4.411-3.589-8-8-8  s-8,3.589-8,8c0,2.887,1.543,5.415,3.843,6.822c-1.013,0.415-1.951,0.974-2.786,1.656C5.41,42.113,4,37.138,4,32  C4,16.561,16.561,4,32,4s28,12.561,28,28C60,37.138,58.59,42.113,55.944,46.478z M49,44c-3.309,0-6-2.691-6-6s2.691-6,6-6  s6,2.691,6,6S52.309,44,49,44z M32,38c-3.309,0-6-2.691-6-6s2.691-6,6-6s6,2.691,6,6S35.309,38,32,38z M15,44c-3.309,0-6-2.691-6-6  s2.691-6,6-6s6,2.691,6,6S18.309,44,15,44z"/><path d="M32,10c0.551,0,1,0.448,1,1h2c0-1.302-0.839-2.402-2-2.816V6h-2v2.184C29.839,8.598,29,9.698,29,11c0,1.654,1.346,3,3,3  c0.551,0,1,0.448,1,1s-0.449,1-1,1s-1-0.448-1-1h-2c0,1.302,0.839,2.402,2,2.816V20h2v-2.184c1.161-0.414,2-1.514,2-2.816  c0-1.654-1.346-3-3-3c-0.551,0-1-0.448-1-1S31.449,10,32,10z"/><path d="M12.148,17.84l1.668,1.104c0.336-0.508,0.717-0.992,1.134-1.439l-1.464-1.363C12.995,16.669,12.544,17.241,12.148,17.84z"/><path d="M18.895,12.661l0.631,1.898c0.579-0.192,1.177-0.337,1.777-0.43L21,12.153C20.288,12.263,19.58,12.434,18.895,12.661z"/><path d="M10,25v1h2v-1c0-0.308,0.013-0.613,0.038-0.915l-1.993-0.166C10.015,24.275,10,24.636,10,25z"/><path d="M10.401,21.785l1.938,0.494c0.15-0.592,0.352-1.173,0.598-1.729l-1.828-0.811C10.817,20.397,10.579,21.086,10.401,21.785z"/><path d="M15.087,14.686l1.218,1.586c0.484-0.372,1.003-0.705,1.54-0.991l-0.94-1.766C16.271,13.853,15.659,14.246,15.087,14.686z"/><path d="M49.472,17.354c0.403,0.453,0.767,0.944,1.08,1.46l1.709-1.039c-0.376-0.618-0.812-1.208-1.295-1.751L49.472,17.354z"/><path d="M46.62,15.127c0.537,0.281,1.051,0.612,1.527,0.984l1.231-1.576c-0.571-0.446-1.188-0.843-1.831-1.18L46.62,15.127z"/><rect height="2" width="2" x="52" y="24"/><path d="M51.837,22.19l1.968-0.359c-0.13-0.715-0.328-1.421-0.586-2.1l-1.869,0.713C51.564,21.008,51.729,21.595,51.837,22.19z"/><path d="M43.168,14.067c0.6,0.069,1.196,0.194,1.774,0.372l0.588-1.912c-0.695-0.214-1.413-0.364-2.134-0.446L43.168,14.067z"/></svg>