<?xml version="1.0" encoding="utf-8"?>
<!-- Generator: Adobe Illustrator 19.2.1, SVG Export Plug-In . SVG Version: 6.00 Build 0)  -->
<svg version="1.1" id="Capa_1" xmlns="http://www.w3.org/2000/svg" xmlns:xlink="http://www.w3.org/1999/xlink" x="0px" y="0px"
	 viewBox="0 0 550 155.2" style="enable-background:new 0 0 550 155.2;" xml:space="preserve">
<style type="text/css">
	.st0{fill:#9A9EA4;}
	.st1{fill-rule:evenodd;clip-rule:evenodd;fill:#9A9EA4;}
	.st2{clip-path:url(#SVGID_2_);fill:url(#SVGID_3_);}
	.st3{clip-path:url(#SVGID_5_);fill:url(#SVGID_6_);}
	.st4{clip-path:url(#SVGID_8_);fill:url(#SVGID_9_);}
	.st5{clip-path:url(#SVGID_11_);fill:url(#SVGID_12_);}
	.st6{clip-path:url(#SVGID_14_);fill:url(#SVGID_15_);}
	.st7{clip-path:url(#SVGID_17_);fill:url(#SVGID_18_);}
</style>
<g>
	<g>
		<g>
			<path class="st0" d="M297.2,52.8c1.7-0.7,4.8-2.3,5.9-3.4h0.1c0.4,0.3,1,1.1,1,1.5c0,1-4.9,2.2-7,2.3V52.8z"/>
		</g>
		<g>
			<path class="st1" d="M183.1,65.6c0-0.2,0-0.2,0-0.4c0-0.2,0-0.4,0-0.4c0-1.7,0.2-3,0.7-4.4c0.6-1.4,1.2-2.4,2.2-3.5
				c1-1,2.1-1.7,3.5-2.4c1.4-0.5,2.9-0.6,4.6-0.6c1.7,0,3.6,0.2,5.7,0.8v3.5c-1.9-1.1-3.9-1.7-6.1-1.7c-1.5,0-2.7,0.5-3.8,1.2
				c-1,0.6-1.8,1.7-2.4,2.8c-0.6,1.2-0.8,2.4-0.8,3.8c0,1.2,0.2,2.2,0.5,3.3c0.4,1,1.1,1.8,1.7,2.7c0.7,0.9,1.6,1.6,2.6,2.1
				c1,0.4,2.1,0.6,3.5,0.6c1.8-0.1,4-0.8,6.3-2l0,0l-1.6,3.6c-1.7,0.5-3.4,0.9-5.1,0.9c-2.1,0-3.8-0.4-5.5-1.1
				c-1.7-0.8-3.1-1.8-4.1-3.2C183.9,69.5,183.3,67.8,183.1,65.6 M202.1,64.9c0-1.7,0.2-3,0.9-4.4c0.5-1.4,1.4-2.6,2.4-3.6
				c1-0.9,2.2-1.6,3.6-2.1c1.2-0.6,2.8-0.8,4.1-0.8c1.6,0,3.1,0.2,4.5,0.6c1.4,0.6,2.6,1.2,3.6,2.1c1,0.8,1.9,2,2.6,3.2
				c0.5,1.2,0.8,2.8,0.8,4.3c0,1.9-0.3,3.6-1.2,5.3c-1,1.7-2.2,3.1-3.9,4.1c-1.7,1-3.6,1.6-5.8,1.7c-2.3,0-4.3-0.5-6.1-1.6
				c-1.8-1-3.2-2.3-4.1-3.8c-1-1.7-1.6-3.3-1.6-5.2l0,0C202.1,64.9,202.1,64.9,202.1,64.9 M205.5,64.8c0.2,1.5,0.5,2.8,1.2,4.2
				c0.6,1.2,1.6,2.3,2.9,3.1c1.4,0.7,2.8,1,4,1c1.3,0,2.5-0.3,3.3-0.8c0.8-0.5,1.7-1,2.2-1.9c0.7-0.8,1.1-1.6,1.4-2.6
				c0.2-0.8,0.4-1.8,0.4-2.9c0-0.1,0-0.5,0-1c-0.2-1.4-0.6-2.8-1.2-3.9c-0.7-1.2-1.6-2-2.8-2.8c-1-0.8-2.4-1.2-3.9-1.2
				c-1.4,0.2-2.8,0.5-3.8,1.2c-1.2,0.7-2.1,1.7-2.8,2.9C205.8,61.5,205.5,63,205.5,64.8 M227,70.7l1.7-13c0,0,0-0.2,0-0.6
				c0.2-0.5,0.2-0.6,0.2-0.8c0-0.8-0.4-1.4-1-1.7l0,0h5.3c0.2,0.6,0.2,1,0.4,1.4l5.8,13.6l5.3-13.4c0.2-0.4,0.4-0.8,0.4-1.6h5.3l0,0
				c-0.5,0.2-0.8,0.9-1,1.7c0.2,0.2,0.2,0.4,0.2,0.6l1.8,14.6c0.2,0.7,0.2,1.3,0.4,1.6c0,0.4,0.2,0.7,0.4,0.9c0.3,0.3,0.5,0.5,1,0.8
				h-0.2H247v-0.2c0.7-0.2,1.3-0.8,1.3-1.8c0-0.2,0-0.4,0-0.7c-0.2-0.2-0.2-0.6-0.2-0.6l-1.6-14l-6.9,17.9c-0.7-0.5-1.2-0.9-1.6-1.4
				c-0.4-0.5-0.6-1.2-1-1.9l-6.1-14.6l-1.8,14.2c0,0.4,0,0.7-0.2,0.9c0.2,0.6,0.2,1,0.4,1.4c0.2,0.3,0.5,0.5,0.8,0.6v0.2h-5v-0.2
				c0.5-0.4,0.8-0.8,1.2-1.6C226.7,72.5,226.8,71.7,227,70.7 M255.5,70.5V58.7c0-1.4,0-2.2-0.2-2.8c-0.2-0.6-0.5-1-1.2-1.4l0,0h5.9
				l0,0c-0.4,0.2-0.7,0.6-0.9,0.9c-0.1,0.1-0.3,0.6-0.3,1.2c0,0.5-0.2,1.2-0.2,2v11.8c0,1,0.2,1.7,0.2,2.3c0,0.5,0.2,1,0.3,1.2
				c0.2,0.3,0.5,0.5,0.9,0.6v0.2h-5.9v-0.2c0.7-0.2,1-0.5,1.2-1.2C255.5,72.8,255.5,71.9,255.5,70.5 M261.8,59.4
				c0-1.2,0.6-2.3,1.2-2.9c0.7-0.9,1.6-1.4,2.8-1.9c1.2-0.4,2.6-0.5,3.9-0.5c1.4,0,2.9,0.1,4.5,0.6v3.5c-0.6-0.7-1.4-1.3-2.2-1.6
				c-0.9-0.2-1.7-0.4-2.6-0.4c-1.1,0-1.9,0.2-2.6,0.5c-0.7,0.3-1.1,0.8-1.3,1.5c-0.1,0.2-0.1,0.5-0.1,0.7c0,0.8,0.3,1.6,1.2,2.2
				c0.6,0.5,1.7,1,2.9,1.7l2.6,1.2c1,0.5,1.8,1,2.8,1.9c0.8,0.8,1.2,1.7,1.2,2.8c0,1.2-0.6,2.5-1.2,3.3c-0.7,1-1.7,1.7-3.1,2.2
				c-1.4,0.5-2.8,0.9-4.5,0.9c-1.6,0-3.2-0.4-5.1-0.9l-0.8-4c1,0.9,2,1.6,3.2,1.9c1,0.5,2.3,0.6,3.3,0.6c1.2,0,2.2-0.3,3.2-0.8
				c0.9-0.5,1.4-1.2,1.4-2.2c0-1.6-1-2.8-3-3.7l-3.5-1.7c-0.6-0.2-1.4-0.7-1.8-1.1c-0.7-0.5-1.2-1.2-1.6-1.8
				C262,61.1,261.8,60.3,261.8,59.4 M279.7,70.5V58.7c0-1.4,0-2.2-0.2-2.8c-0.2-0.6-0.6-1-1.2-1.4l0,0h5.9l0,0
				c-0.4,0.2-0.7,0.6-0.9,0.9c-0.2,0.1-0.4,0.6-0.4,1.2c0,0.5-0.1,1.2-0.1,2v11.8c0,1,0.1,1.7,0.1,2.3c0,0.5,0.2,1,0.4,1.2
				c0.2,0.3,0.6,0.5,0.9,0.6v0.2h-5.9v-0.2c0.6-0.2,1-0.5,1.2-1.2C279.7,72.8,279.7,71.9,279.7,70.5 M286.2,64.9
				c0-1.7,0.2-3,0.8-4.4c0.6-1.4,1.4-2.6,2.5-3.6c1-0.9,2.2-1.6,3.6-2.1c1.2-0.6,2.8-0.8,4.1-0.8c1.6,0,3,0.2,4.4,0.6
				c1.4,0.6,2.6,1.2,3.7,2.1c1,0.8,1.8,2,2.6,3.2c0.5,1.2,0.8,2.8,0.8,4.3c0,1.9-0.4,3.6-1.2,5.3c-1,1.7-2.2,3.1-3.9,4.1
				c-1.7,1-3.6,1.6-5.9,1.7c-2.2,0-4.2-0.5-6-1.6c-1.9-1-3.3-2.3-4.1-3.8c-1-1.7-1.6-3.3-1.6-5.2l0,0
				C286.2,64.9,286.2,64.9,286.2,64.9 M289.6,64.8c0.2,1.5,0.5,2.8,1.3,4.2c0.6,1.2,1.7,2.3,2.8,3.1c1.4,0.7,2.8,1,4.1,1
				c1.2,0,2.4-0.3,3.3-0.8c0.8-0.5,1.7-1,2.2-1.9c0.7-0.8,1-1.6,1.4-2.6c0.2-0.8,0.4-1.8,0.4-2.9c0-0.1,0-0.5,0-1
				c-0.2-1.4-0.5-2.8-1.2-3.9c-0.7-1.2-1.6-2-2.8-2.8c-1-0.8-2.4-1.2-3.9-1.2c-1.4,0.2-2.8,0.5-3.8,1.2c-1.3,0.7-2.1,1.7-2.8,2.9
				C290,61.5,289.6,63,289.6,64.8 M312,71.1V58.2c0-1.3,0-1.9-0.4-2.5c-0.2-0.3-0.7-0.6-1.2-1.2l0,0h4.4c0,0.2,0.4,0.7,1.1,1.4
				l11.3,14.2V58.2c0-0.9-0.2-1.6-0.4-2.3c-0.1-0.5-0.5-1-1.2-1.4l0,0h5.1l0,0c-0.5,0.4-0.8,0.6-1,0.9c-0.2,0.1-0.4,0.5-0.5,1
				c0,0.4-0.2,1-0.2,1.8l0.2,17.5c-1.1-0.4-1.7-0.6-2.3-1.2c-0.5-0.5-1.2-1-1.7-1.7l-11.2-14v12.2c0,0.8,0,1.4,0.2,1.8
				c0.2,0.4,0.4,0.7,0.5,1.1c0.2,0.2,0.6,0.5,1.1,0.6v0.2h-5.5v-0.2c0.6-0.2,1-0.6,1.2-1.2C312,72.9,312,72.1,312,71.1 M342.9,71.1
				V58.2c0-1.3,0-1.9-0.3-2.5c-0.2-0.3-0.7-0.6-1.2-1.2l0,0h4.4c0,0.2,0.4,0.7,1,1.4l11.4,14.2V58.2c0-0.9-0.2-1.6-0.4-2.3
				c-0.2-0.5-0.5-1-1.2-1.4l0,0h5.1l0,0c-0.5,0.4-0.8,0.6-1,0.9c-0.2,0.1-0.4,0.5-0.5,1c0,0.4-0.1,1-0.1,1.8l0.1,17.5
				c-1-0.4-1.7-0.6-2.2-1.2c-0.6-0.5-1.2-1-1.7-1.7l-11.1-14v12.2c0,0.8,0,1.4,0.2,1.8c0.1,0.4,0.3,0.7,0.5,1.1
				c0.2,0.2,0.5,0.5,1,0.6v0.2h-5.4v-0.2c0.6-0.2,1-0.6,1.2-1.2C342.9,72.9,342.9,72.1,342.9,71.1 M365.5,70.4l5.3-13.2
				c0.2-0.5,0.4-1,0.4-1.4c0-0.5-0.4-1-1-1.2l0,0h5l6.9,16.9c0.4,0.8,0.6,1.5,1,2c0.4,0.5,0.9,0.8,1.6,1.2v0.2h-6.3v-0.2
				c0.6-0.2,1-0.5,1-1c0-0.2,0-0.7-0.4-1.2l-1.8-5.3h-7.7l-1.9,5c-0.2,0.5-0.4,0.8-0.4,1.2c0.2,0.7,0.6,1.2,1.2,1.4v0.2h-5.6v-0.2
				c0.3-0.2,0.8-0.4,1-0.6c0.4-0.4,0.6-0.7,0.8-1.1c0.2-0.3,0.4-0.8,0.6-1.4C365.3,71.3,365.5,70.7,365.5,70.4 M370,64.9h6.1
				l-2.9-7.7L370,64.9 M385.5,65.6c0-0.2,0-0.2,0-0.4c0-0.2,0-0.4,0-0.4c0-1.7,0.2-3,0.7-4.4c0.6-1.4,1.2-2.4,2.2-3.5
				c1-1,2.1-1.7,3.5-2.4c1.4-0.5,2.8-0.6,4.6-0.6c1.7,0,3.6,0.2,5.7,0.8v3.5c-1.9-1.1-3.9-1.7-6.1-1.7c-1.5,0-2.8,0.5-3.8,1.2
				c-1,0.6-1.8,1.7-2.4,2.8c-0.5,1.2-0.8,2.4-0.8,3.8c0,1.2,0.2,2.2,0.5,3.3c0.4,1,1.1,1.8,1.7,2.7c0.7,0.9,1.6,1.6,2.6,2.1
				c1,0.4,2.1,0.6,3.5,0.6c1.8-0.1,4-0.8,6.3-2l0,0l-1.6,3.6c-1.7,0.5-3.5,0.9-5.1,0.9c-2.1,0-3.8-0.4-5.5-1.1
				c-1.7-0.8-3.1-1.8-4.1-3.2C386.2,69.5,385.7,67.8,385.5,65.6 M405.9,70.5V58.7c0-1.4,0-2.2-0.2-2.8c-0.2-0.6-0.5-1-1.2-1.4l0,0
				h5.9l0,0c-0.4,0.2-0.7,0.6-0.9,0.9c-0.2,0.1-0.3,0.6-0.3,1.2c0,0.5-0.2,1.2-0.2,2v11.8c0,1,0.2,1.7,0.2,2.3c0,0.5,0.1,1,0.3,1.2
				c0.2,0.3,0.6,0.5,0.9,0.6v0.2h-5.9v-0.2c0.7-0.2,1-0.5,1.2-1.2C405.9,72.8,405.9,71.9,405.9,70.5 M412.5,64.9
				c0-1.7,0.2-3,0.9-4.4c0.5-1.4,1.3-2.6,2.4-3.6c1-0.9,2.2-1.6,3.6-2.1c1.2-0.6,2.8-0.8,4.1-0.8c1.6,0,3.1,0.2,4.5,0.6
				c1.4,0.6,2.6,1.2,3.6,2.1c1,0.8,1.8,2,2.6,3.2c0.6,1.2,0.8,2.8,0.8,4.3c0,1.9-0.3,3.6-1.2,5.3c-1,1.7-2.2,3.1-3.9,4.1
				c-1.7,1-3.6,1.6-5.8,1.7c-2.3,0-4.3-0.5-6.1-1.6c-1.9-1-3.3-2.3-4.1-3.8c-1-1.7-1.6-3.3-1.6-5.2l0,0
				C412.5,64.9,412.5,64.9,412.5,64.9 M416,64.8c0.1,1.5,0.5,2.8,1.2,4.2c0.6,1.2,1.7,2.3,2.8,3.1c1.4,0.7,2.8,1,4.1,1
				c1.2,0,2.5-0.3,3.3-0.8c0.8-0.5,1.7-1,2.2-1.9c0.7-0.8,1-1.6,1.4-2.6c0.2-0.8,0.4-1.8,0.4-2.9c0-0.1,0-0.5,0-1
				c-0.2-1.4-0.5-2.8-1.2-3.9c-0.7-1.2-1.6-2-2.8-2.8c-1-0.8-2.4-1.2-3.9-1.2c-1.4,0.2-2.8,0.5-3.8,1.2c-1.2,0.7-2.1,1.7-2.8,2.9
				C416.2,61.5,416,63,416,64.8 M438.3,71.1V58.2c0-1.3,0-1.9-0.4-2.5c-0.2-0.3-0.6-0.6-1.2-1.2l0,0h4.5c0,0.2,0.3,0.7,1,1.4
				l11.3,14.2V58.2c0-0.9-0.2-1.6-0.3-2.3c-0.2-0.5-0.6-1-1.3-1.4l0,0h5.2l0,0c-0.6,0.4-0.9,0.6-1.1,0.9c-0.2,0.1-0.3,0.5-0.5,1
				c0,0.4-0.2,1-0.2,1.8l0.2,17.5c-1-0.4-1.7-0.6-2.3-1.2c-0.5-0.5-1.2-1-1.6-1.7l-11.2-14v12.2c0,0.8,0,1.4,0.2,1.8
				c0.2,0.4,0.4,0.7,0.6,1.1c0.1,0.2,0.5,0.5,1,0.6v0.2h-5.5v-0.2c0.6-0.2,1-0.6,1.2-1.2C438.3,72.9,438.3,72.1,438.3,71.1
				 M460.9,70.4l5.3-13.2c0.2-0.5,0.3-1,0.3-1.4c0-0.5-0.3-1-1-1.2l0,0h5l6.8,16.9c0.4,0.8,0.7,1.5,1.1,2c0.3,0.5,0.8,0.8,1.5,1.2
				v0.2h-6.3v-0.2c0.7-0.2,1-0.5,1-1c0-0.2,0-0.7-0.3-1.2l-1.9-5.3h-7.7l-1.9,5c-0.2,0.5-0.3,0.8-0.3,1.2c0.1,0.7,0.5,1.2,1.2,1.4
				v0.2H458v-0.2c0.4-0.2,0.8-0.4,1-0.6c0.4-0.4,0.7-0.7,0.9-1.1c0.1-0.3,0.3-0.8,0.5-1.4C460.6,71.3,460.7,70.7,460.9,70.4
				 M465.3,64.9h6.1l-2.9-7.7L465.3,64.9 M482.9,71.1V58.3c0-1,0-1.8-0.2-2.4c-0.2-0.6-0.5-1-1.2-1.4l0,0h6.1l0,0
				c-0.5,0.2-1,0.7-1.2,1.2c-0.2,0.6-0.2,1.2-0.2,1.9c0,0.2,0,0.4,0,0.6v14.1c0.5,0,1.4,0,2.6,0.2c1,0,1.7,0,1.8,0
				c1.1,0,1.9,0,2.6-0.4c0.9-0.2,1.7-0.7,2.8-1.6l0.2,0.2l-1.7,3.9h-12.9v-0.2c1-0.4,1.4-1.4,1.4-3.1V71.1 M185.1,101.3V87.4
				c0-0.7,0-1.3-0.2-1.9c-0.1-0.6-0.5-0.8-1.2-1.2h7.6c1.7,0,3.2,0.4,4.4,1c1.2,0.8,1.7,1.9,1.7,3.3c0,2-1,3.4-3.1,4.1
				c1.7,0.3,2.9,1,3.9,2c0.8,1,1.2,2.2,1.2,3.8c-0.2,1.9-1.1,3.5-2.6,4.5c-1.6,1-3.5,1.6-5.9,1.6h-7.3c0.6-0.4,0.7-0.6,0.9-0.7
				c0.2-0.2,0.3-0.5,0.5-0.8C185.1,102.7,185.1,102,185.1,101.3 M188.4,102.1l2.6,0.2c1.7,0,2.9-0.3,3.8-1c0.8-0.6,1.4-1.7,1.4-2.8
				c0-0.8-0.4-1.7-0.8-2.4c-0.6-0.6-1.2-1.2-2.1-1.6c-0.8-0.2-1.7-0.4-2.6-0.4h-2.2V102.1 M188.4,92.6h1c0.8,0,1.6-0.2,2.2-0.6
				c0.9-0.2,1.4-0.5,1.9-1c0.4-0.6,0.6-1.2,0.6-1.9c-0.1-1-0.5-1.8-1.2-2.4c-0.6-0.5-1.5-0.6-2.6-0.6l-2,0.1V92.6 M203.4,100.1
				l5.3-13.2c0.2-0.6,0.3-1,0.3-1.4c0-0.6-0.3-1-1-1.2l0,0h5l6.9,16.8c0.4,0.9,0.7,1.6,1,2.1c0.4,0.5,0.9,0.8,1.6,1.2v0.2h-6.3v-0.2
				c0.7-0.2,1-0.5,1-1c0-0.2,0-0.7-0.3-1.3l-1.9-5.3h-7.7l-1.9,5c-0.2,0.5-0.4,0.8-0.4,1.2c0.2,0.6,0.6,1.2,1.3,1.4v0.2h-5.7v-0.2
				c0.4-0.2,0.8-0.4,1-0.7c0.4-0.3,0.7-0.6,0.8-1c0.2-0.4,0.4-0.8,0.6-1.4C203,100.9,203.2,100.5,203.4,100.1 M207.8,94.6h6.1
				l-2.9-7.7L207.8,94.6 M225.3,100.8V87.9c0-1.2,0-1.8-0.4-2.4c-0.1-0.4-0.6-0.6-1.2-1.2l0,0h4.5c0,0.2,0.4,0.6,1,1.4l11.4,14.2
				v-12c0-0.8-0.2-1.6-0.4-2.2c-0.2-0.5-0.5-1-1.2-1.4l0,0h5.1l0,0c-0.6,0.4-0.8,0.6-1,0.8c-0.2,0.2-0.4,0.5-0.5,1
				c0,0.4-0.2,1.1-0.2,1.9l0.2,17.5c-1-0.4-1.7-0.7-2.2-1.2c-0.6-0.5-1.2-1-1.7-1.7l-11.2-14.1v12.2c0,0.8,0,1.3,0.2,1.8
				c0.2,0.4,0.4,0.7,0.5,1c0.2,0.2,0.5,0.5,1,0.7v0.2h-5.5v-0.2c0.7-0.2,1.1-0.7,1.2-1.2C225.3,102.7,225.3,101.9,225.3,100.8
				 M245.6,95.3c0-0.2,0-0.2,0-0.4c0-0.2,0-0.4,0-0.4c0-1.7,0.2-3.1,0.6-4.4c0.6-1.4,1.2-2.5,2.3-3.5c1-1,2-1.7,3.4-2.4
				c1.4-0.6,2.9-0.7,4.7-0.7c1.6,0,3.6,0.2,5.6,0.9v3.4c-1.8-1-4-1.7-6-1.7c-1.6,0-2.8,0.5-3.8,1.3c-1,0.6-1.9,1.7-2.4,2.8
				c-0.6,1.2-0.9,2.4-0.9,3.8c0,1.2,0.2,2.2,0.5,3.2c0.4,1,1,1.9,1.7,2.8c0.6,0.9,1.5,1.6,2.6,2.1c1,0.3,2,0.6,3.4,0.6
				c1.9-0.2,4.1-0.8,6.3-2l0,0l-1.6,3.6c-1.7,0.6-3.4,0.8-5.1,0.8c-2,0-3.8-0.3-5.5-1c-1.7-0.8-3-1.9-4.1-3.2
				C246.3,99.3,245.8,97.5,245.6,95.3 M266.6,100.1l5.3-13.2c0.2-0.6,0.4-1,0.4-1.4c0-0.6-0.4-1-1-1.2l0,0h5l6.9,16.8
				c0.3,0.9,0.6,1.6,1,2.1c0.4,0.5,0.8,0.8,1.6,1.2v0.2h-6.3v-0.2c0.6-0.2,1-0.5,1-1c0-0.2,0-0.7-0.4-1.3l-1.9-5.3h-7.7l-1.8,5
				c-0.2,0.5-0.4,0.8-0.4,1.2c0.2,0.6,0.6,1.2,1.2,1.4v0.2h-5.7v-0.2c0.4-0.2,0.9-0.4,1.1-0.7c0.3-0.3,0.6-0.6,0.8-1
				c0.2-0.4,0.4-0.8,0.5-1.4C266.2,100.9,266.4,100.5,266.6,100.1 M271.1,94.6h6l-2.9-7.7L271.1,94.6 M288.6,100.3V88.4
				c0-0.9,0-1.6,0-2.1c0-0.5-0.2-0.8-0.4-1.2c-0.2-0.3-0.5-0.5-1-0.6l0.2-0.2h7.2c2.1,0,3.8,0.6,4.8,1.6c1.1,1,1.6,2.4,1.6,4
				c0,1-0.5,2-1.4,2.9c-0.8,0.8-1.8,1.5-3.4,2l4.6,5.9c0.4,0.3,0.9,1,1.7,1.7c0.9,0.7,1.7,1.4,3.1,2.3h-3.3c-0.6,0-1.4-0.2-1.8-0.6
				c-0.6-0.2-1.1-0.6-1.6-1.4l-3.6-4.3l-2.7-4.2c0.8-0.2,1.7-0.5,2.6-0.9c0.6-0.4,1.4-0.8,1.8-1.6c0.5-0.5,0.9-1.4,0.9-2.2
				c-0.2-1.2-0.5-1.9-1.2-2.4c-0.9-0.5-1.7-0.9-2.9-0.9c-0.6,0-1.2,0.2-1.9,0.4v13.8c0,1,0,1.7,0,2.2c0.2,0.5,0.2,0.9,0.4,1.2
				c0.4,0.4,0.5,0.5,1,0.9l0,0h-5.8v-0.2c0.5-0.2,0.8-0.7,1-1.2C288.6,102.5,288.6,101.7,288.6,100.3 M305,100.3V88.4
				c0-1.4,0-2.3-0.2-2.8c-0.2-0.7-0.5-1-1.2-1.4l0,0h5.9l0,0c-0.4,0.2-0.7,0.6-0.8,0.8c-0.2,0.2-0.4,0.7-0.4,1.2
				c0,0.6-0.2,1.2-0.2,2.1v11.8c0,1,0.2,1.7,0.2,2.2c0,0.5,0.2,1,0.4,1.2c0.1,0.4,0.5,0.5,0.8,0.7v0.2h-5.9v-0.2
				c0.7-0.2,1-0.5,1.2-1.2C305,102.5,305,101.7,305,100.3 M313.7,100.1l5.3-13.2c0.2-0.6,0.4-1,0.4-1.4c0-0.6-0.4-1-1.1-1.2l0,0h5
				l6.8,16.8c0.4,0.9,0.7,1.6,1.1,2.1c0.3,0.5,0.8,0.8,1.5,1.2v0.2h-6.3v-0.2c0.7-0.2,1-0.5,1-1c0-0.2,0-0.7-0.3-1.3l-1.9-5.3h-7.7
				l-1.9,5c-0.2,0.5-0.3,0.8-0.3,1.2c0.1,0.6,0.5,1.2,1.2,1.4v0.2h-5.7v-0.2c0.4-0.2,0.8-0.4,1-0.7c0.4-0.3,0.7-0.6,0.9-1
				c0.1-0.4,0.3-0.8,0.5-1.4C313.3,100.9,313.5,100.5,313.7,100.1 M318.1,94.6h6.1l-2.9-7.7L318.1,94.6 M348.6,101.5v-5.9l-5.8-9.3
				c-0.2-0.3-0.6-0.6-0.9-1c-0.3-0.5-0.8-0.8-1.3-1h2.8c0.6,0,1.1,0,1.2,0.2c0.4,0,0.6,0.2,0.7,0.4c0.2,0.1,0.4,0.3,0.6,0.5
				c0,0.2,0.1,0.4,0.3,0.7l4.3,7.2l4.1-6c0.4-0.4,0.5-0.9,0.5-1.4c0-0.7-0.5-1.2-1.3-1.6l0,0h5.5l-7.7,11.3v5.2
				c0,0.8,0.2,1.7,0.4,2.2c0.2,0.4,0.5,0.8,1.2,1.4v0.2h-6.1v-0.2c0.7-0.4,1.1-0.7,1.3-1C348.5,102.9,348.6,102.1,348.6,101.5
				 M369.3,101.5L369.3,101.5V87.3c0-1.7-0.6-2.6-1.4-2.9h7.7c2.4,0,4.7,0.4,6.3,1.4c1.7,0.8,3.1,2,3.9,3.6c0.9,1.6,1.3,3.5,1.3,5.3
				c0,1.7-0.6,3.3-1.4,4.9c-0.9,1.5-2.3,2.7-3.9,3.8c-1.7,0.8-3.9,1.4-6.6,1.4h-7.3v-0.2C368.7,103.9,369.3,102.9,369.3,101.5
				 M372.4,102.1c0.5,0,1.2,0.2,2.2,0.2c1.6,0,2.9-0.2,4.1-0.6c1.4-0.5,2.4-1.2,3.4-2.4c0.9-1.1,1.4-2.5,1.4-4c0-0.2,0-0.4,0-0.5
				c0,0,0-0.2,0-0.4c0-2-0.3-3.6-1.2-4.8c-0.8-1.2-1.8-2.1-3.1-2.6c-1.2-0.4-2.6-0.5-3.9-0.5c-0.8,0-1.8,0-2.8,0.2V102.1
				 M390.4,101.5L390.4,101.5V87.9c0-1,0-1.7-0.2-2.4c-0.2-0.6-0.5-1-1.2-1.2h10.2c0.1,0,0.3,0,0.5,0c0.4,0,0.7-0.2,0.8-0.2h0.2v3.6
				h-0.2c-0.3-0.5-0.8-0.8-1.5-1c-0.5-0.2-1.4-0.2-2.3-0.2c-0.6,0-1,0-1.4,0c-0.3,0-0.6,0-0.8,0c-0.2,0-0.4,0-0.5,0
				c-0.1,0-0.3,0.2-0.3,0.2v5.9h2.9c0.4,0,0.5,0,0.7,0c0.8,0,1.2-0.2,1.6-0.4l0,0v3.4l0,0c-0.4-0.6-1.4-1-2.8-1h-2.4v7.4
				c0.6,0,1.5,0.1,2.4,0.1c0.8,0.2,1.4,0.2,1.8,0.2c0.2,0,0.4,0,0.6,0c1.9,0,3.6-0.6,5-1.8l0,0l-1.4,4.1h-13v-0.2
				C390,104.1,390.4,103.2,390.4,101.5 M422,104.9c-0.8-0.5-1.5-1-1.8-1.5c-0.4-0.4-0.7-1.1-1-2.1l-5-13.8c-0.3-0.8-0.6-1.5-0.8-1.8
				c-0.4-0.5-0.7-0.8-1.2-1.2v-0.2h4.6c0,0.2,0,0.4-0.2,0.4c0.2,0.5,0.4,1.2,0.6,2l5.3,14.2l4.8-12.5c0.4-0.9,0.5-1.6,0.5-2.3
				c0-1-0.4-1.5-1.2-1.7v-0.2h4.7l-8.1,21.3L422,104.9 M434,100.1l5.3-13.2c0.2-0.6,0.4-1,0.4-1.4c0-0.6-0.4-1-1-1.2l0,0h5l6.9,16.8
				c0.4,0.9,0.6,1.6,1,2.1c0.4,0.5,0.9,0.8,1.6,1.2v0.2h-6.3v-0.2c0.6-0.2,1-0.5,1-1c0-0.2,0-0.7-0.4-1.3l-1.8-5.3h-7.8l-1.8,5
				c-0.2,0.5-0.4,0.8-0.4,1.2c0.2,0.6,0.5,1.2,1.2,1.4v0.2h-5.6v-0.2c0.3-0.2,0.8-0.4,1-0.7c0.3-0.3,0.6-0.6,0.8-1
				c0.2-0.4,0.4-0.8,0.6-1.4C433.7,100.9,433.8,100.5,434,100.1 M438.5,94.6h6l-2.8-7.7L438.5,94.6 M456,100.8V88.1
				c0-1,0-1.9-0.2-2.4c-0.2-0.7-0.5-1-1.2-1.4l0,0h6l0,0c-0.5,0.2-1,0.6-1.2,1.2c-0.2,0.5-0.2,1.2-0.2,1.9c0,0.1,0,0.3,0,0.6v14
				c0.5,0,1.4,0,2.6,0.2c1.1,0,1.7,0,1.9,0c1,0,1.9,0,2.6-0.3c0.8-0.2,1.7-0.7,2.8-1.6l0.2,0.2l-1.7,4h-12.9v-0.2
				c1-0.4,1.4-1.4,1.4-3.1V100.8 M470.4,94.6c0-1.7,0.2-3.1,0.8-4.4c0.6-1.4,1.4-2.7,2.4-3.7c1.1-0.8,2.3-1.6,3.7-2
				c1.2-0.7,2.8-0.9,4.1-0.9c1.6,0,3,0.2,4.4,0.7c1.4,0.6,2.6,1.2,3.7,2c1,0.9,1.8,2.1,2.6,3.3c0.5,1.2,0.8,2.7,0.8,4.3
				c0,1.8-0.4,3.6-1.2,5.3c-1,1.6-2.2,3-3.9,4.1c-1.7,1-3.6,1.5-5.9,1.7c-2.2,0-4.2-0.5-6-1.6c-1.9-1-3.3-2.2-4.1-3.8
				c-1-1.7-1.6-3.2-1.6-5.1l0,0C470.4,94.6,470.4,94.6,470.4,94.6 M473.8,94.4c0.2,1.6,0.6,2.9,1.2,4.3c0.7,1.2,1.7,2.2,2.9,3.1
				c1.4,0.6,2.8,1,4.1,1c1.2,0,2.4-0.4,3.3-0.8c0.8-0.6,1.6-1.1,2.2-1.9c0.7-0.8,1-1.7,1.4-2.6c0.2-0.8,0.4-1.9,0.4-2.9
				c0-0.2,0-0.5,0-1c-0.2-1.4-0.6-2.8-1.2-3.9c-0.7-1.2-1.6-2.1-2.8-2.8c-1.1-0.8-2.4-1.2-3.9-1.2c-1.4,0.2-2.8,0.5-3.8,1.2
				c-1.3,0.6-2.1,1.7-2.7,2.9C474.2,91.2,473.8,92.8,473.8,94.4 M496.2,100.3V88.4c0-0.9,0-1.6,0-2.1c0-0.5-0.2-0.8-0.4-1.2
				c-0.2-0.3-0.6-0.5-1-0.6l0.1-0.2h7.3c2.1,0,3.8,0.6,4.8,1.6c1.1,1,1.6,2.4,1.6,4c0,1-0.5,2-1.4,2.9c-0.8,0.8-1.8,1.5-3.4,2
				l4.6,5.9c0.4,0.3,0.9,1,1.7,1.7c0.8,0.7,1.7,1.4,3.1,2.3h-3.3c-0.6,0-1.4-0.2-1.8-0.6c-0.5-0.2-1.1-0.6-1.6-1.4l-3.6-4.3
				l-2.8-4.2c0.8-0.2,1.7-0.5,2.6-0.9c0.6-0.4,1.4-0.8,1.8-1.6c0.5-0.5,0.9-1.4,0.9-2.2c-0.2-1.2-0.6-1.9-1.2-2.4
				c-0.9-0.5-1.7-0.9-2.9-0.9c-0.6,0-1.2,0.2-1.9,0.4v13.8c0,1,0,1.7,0,2.2c0.2,0.5,0.2,0.9,0.4,1.2c0.4,0.4,0.5,0.5,1,0.9l0,0H495
				v-0.2c0.6-0.2,0.9-0.7,1.1-1.2C496.2,102.5,496.2,101.7,496.2,100.3 M512.9,101.5L512.9,101.5V87.9c0-1,0-1.7-0.2-2.4
				c-0.2-0.6-0.5-1-1.2-1.2h10.1c0.2,0,0.4,0,0.5,0c0.4,0,0.7-0.2,0.8-0.2h0.2v3.6H523c-0.3-0.5-0.8-0.8-1.5-1
				c-0.5-0.2-1.4-0.2-2.3-0.2c-0.6,0-1,0-1.4,0c-0.3,0-0.6,0-0.8,0c-0.2,0-0.4,0-0.5,0c-0.2,0-0.3,0.2-0.3,0.2v5.9h2.8
				c0.4,0,0.5,0,0.7,0c0.8,0,1.2-0.2,1.6-0.4l0,0v3.4l0,0c-0.4-0.6-1.4-1-2.7-1h-2.4v7.4c0.6,0,1.5,0.1,2.4,0.1
				c0.8,0.2,1.4,0.2,1.8,0.2c0.2,0,0.4,0,0.6,0c1.9,0,3.6-0.6,5-1.8l0,0l-1.4,4.1h-13v-0.2C512.5,104.1,512.9,103.2,512.9,101.5
				 M527.1,89.1c0-1.2,0.5-2.2,1.2-2.9c0.7-0.8,1.6-1.3,2.8-1.8c1.2-0.4,2.6-0.6,3.9-0.6c1.4,0,2.9,0.2,4.5,0.7v3.4
				c-0.6-0.6-1.4-1.2-2.2-1.6c-0.9-0.2-1.7-0.3-2.6-0.3c-1.1,0-1.9,0.1-2.6,0.5c-0.7,0.4-1.1,0.9-1.2,1.6c-0.2,0.2-0.2,0.5-0.2,0.7
				c0,0.8,0.3,1.5,1.2,2.2c0.6,0.5,1.7,1,2.9,1.7l2.6,1.2c1,0.5,1.8,1,2.8,1.8c0.8,0.9,1.2,1.7,1.2,2.9c0,1.2-0.6,2.4-1.2,3.3
				c-0.7,1-1.7,1.7-3.1,2.2c-1.4,0.6-2.8,0.8-4.5,0.8c-1.6,0-3.2-0.3-5.1-0.8l-0.8-3.9c1,0.8,2,1.6,3.2,1.8c1.1,0.6,2.3,0.7,3.3,0.7
				c1.2,0,2.2-0.4,3.2-0.8c0.9-0.6,1.4-1.2,1.4-2.3c0-1.6-1-2.8-3-3.6l-3.5-1.7c-0.6-0.2-1.4-0.6-1.8-1c-0.7-0.6-1.2-1.2-1.6-1.9
				C527.3,90.8,527.1,90,527.1,89.1"/>
		</g>
	</g>
	<g>
		<path class="st0" d="M59.8,86.1l-2.3,8.2c-1.5,0.5-3,0.8-4.5,1c-1.5,0.2-3.2,0.3-5,0.3c-2.6,0-4.9-0.3-7-1c-2-0.7-4-2-5.8-3.8
			c-1.8-1.8-3.2-4-4.2-6.5c-0.9-2.5-1.4-5.2-1.4-8.1c0-2.6,0.4-5.2,1.3-7.8c0.9-2.5,2.2-4.7,3.9-6.4c1.7-1.7,3.7-3,6-3.8
			c2.3-0.8,4.7-1.2,7.3-1.2l7.2,0.7l0.3,7.9c-2.4-1.9-5.1-2.9-8-2.9c-3,0-5.1,1.2-6.4,3.6c-1.3,2.4-1.9,5.5-1.9,9.3
			c0,4.1,0.9,7.5,2.6,10.1c1.7,2.6,4.3,3.9,7.7,3.9c1.7,0,3.4-0.3,5.1-1C56.2,88.2,58,87.3,59.8,86.1"/>
		<path class="st0" d="M88.5,66.1V96c-0.8,0-1.7-0.2-2.7-0.7c-1-0.4-2-1-3.2-1.6c-1.2-0.7-2.1-1.4-2.9-2.2c-0.8-0.8-2.1-2.5-3.9-5.4
			l-9.2-14.4l-0.2,14.8c0,2.1,0.1,3.7,0.3,4.8c0.2,1.1,0.8,2.1,1.8,3.2l-9.3,0.2c1-1.1,1.5-2.2,1.8-3.4c0.2-1.1,0.4-2.7,0.4-4.8
			V67.3c0-2.4-0.2-4.1-0.4-5.2c-0.3-1.1-1.1-2.4-2.3-4.1l10-0.2l14.8,22.7V66.1c0-2-0.1-3.5-0.4-4.7c-0.2-1.2-0.8-2.3-1.8-3.3
			l9.4-0.2c-0.9,1.1-1.5,2.3-1.8,3.4C88.6,62.5,88.5,64,88.5,66.1"/>
		<path class="st0" d="M135.5,86.6l-2.7,9.3c-1-0.4-2.1-0.8-3.1-1.2c-1-0.4-2.1-1-3.2-1.7c-1.1-0.8-1.9-1.6-2.4-2.5
			c-0.5-0.9-1.1-2.3-1.7-4l-7.3-23.5c-0.4-1.2-0.7-2.1-1-2.8c-0.3-0.7-0.8-1.4-1.3-2.1l10.8-0.2l0,0.4c0,0.8,0.2,1.9,0.7,3.5
			c0.4,1.6,0.7,2.5,0.8,2.9l6.1,20.8l5.6-20.5c0.2-0.9,0.4-1.5,0.5-2c0.1-0.4,0.1-0.9,0.1-1.3c0-0.8-0.2-1.6-0.5-2.1
			c-0.4-0.6-0.9-1.1-1.6-1.6l8.6-0.2L135.5,86.6z"/>
		<path class="st0" d="M104.6,70.9c-0.6,1-1.5,1.5-2.5,1.5c-0.2,0-0.5-0.1-0.9-0.2v-8.7c0.5-0.2,1-0.3,1.4-0.3c1,0,1.7,0.4,2.2,1.3
			c0.5,0.9,0.8,1.9,0.8,3.1C105.5,68.7,105.2,69.9,104.6,70.9 M114.5,77.1c-1.3-1.8-3-2.9-5.1-3.2c1.6-0.6,2.9-1.5,3.8-2.7
			c0.9-1.2,1.4-2.7,1.4-4.5c0-1.4-0.3-2.7-0.9-3.9c-0.6-1.1-1.4-2.2-2.4-3.1c-1-0.9-2-1.4-3-1.6c-1-0.2-2.3-0.3-3.9-0.3l-14.5,0.2
			c0.8,0.5,1.3,1.1,1.6,1.9c0.3,0.8,0.5,2.2,0.5,4v1.9v21.1v1.9c0,1.4-0.1,2.7-0.4,3.7c-0.3,1-0.8,1.9-1.7,2.5h14.3
			c2.1,0,3.7-0.2,5-0.5c1.3-0.3,2.8-1.4,4.5-3.1c1.8-1.7,2.6-4.4,2.6-7.9C116.4,81.1,115.8,78.9,114.5,77.1 M106.5,87.8
			c-0.7,1.2-1.8,1.8-3.3,1.8c-0.8,0-1.5-0.2-2.1-0.7V77.2h1.1c3.6,0,5.4,2.1,5.4,6.2C107.6,85.1,107.2,86.6,106.5,87.8"/>
		<g>
			<defs>
				<polygon id="SVGID_1_" points="128.2,130.3 138.1,130.3 169.4,76.5 164.6,68 				"/>
			</defs>
			<clipPath id="SVGID_2_">
				<use xlink:href="#SVGID_1_"  style="overflow:visible;"/>
			</clipPath>
			
				<linearGradient id="SVGID_3_" gradientUnits="userSpaceOnUse" x1="-43.4095" y1="585.692" x2="-40.0502" y2="585.692" gradientTransform="matrix(12.2666 0 0 -12.2666 660.7025 7283.5791)">
				<stop  offset="0" style="stop-color:#F0EFF1"/>
				<stop  offset="1" style="stop-color:#9A9EA4"/>
			</linearGradient>
			<rect x="128.2" y="68" class="st2" width="41.2" height="62.3"/>
		</g>
		<g>
			<defs>
				<polygon id="SVGID_4_" points="118.7,7.7 156.1,70.1 160.9,62 129.3,7.7 				"/>
			</defs>
			<clipPath id="SVGID_5_">
				<use xlink:href="#SVGID_4_"  style="overflow:visible;"/>
			</clipPath>
			
				<linearGradient id="SVGID_6_" gradientUnits="userSpaceOnUse" x1="-43.6512" y1="589.174" x2="-40.2925" y2="589.174" gradientTransform="matrix(12.5645 0 0 -12.5645 667.1992 7441.5859)">
				<stop  offset="0" style="stop-color:#9A9EA4"/>
				<stop  offset="1" style="stop-color:#F0EFF1"/>
			</linearGradient>
			<rect x="118.7" y="7.7" class="st3" width="42.2" height="62.4"/>
		</g>
		<g>
			<defs>
				<polygon id="SVGID_7_" points="48.7,7.7 43.9,16.1 116.4,16.1 111.4,7.7 				"/>
			</defs>
			<clipPath id="SVGID_8_">
				<use xlink:href="#SVGID_7_"  style="overflow:visible;"/>
			</clipPath>
			
				<linearGradient id="SVGID_9_" gradientUnits="userSpaceOnUse" x1="-40.3545" y1="591.2583" x2="-36.9954" y2="591.2583" gradientTransform="matrix(21.5952 0 0 -21.5952 915.3532 12780.25)">
				<stop  offset="0" style="stop-color:#9A9EA4"/>
				<stop  offset="1" style="stop-color:#F0EFF1"/>
			</linearGradient>
			<rect x="43.9" y="7.7" class="st4" width="72.5" height="8.4"/>
		</g>
		<g>
			<defs>
				<polygon id="SVGID_10_" points="40.2,22.4 8.9,76.5 13.5,85 50.1,22.4 				"/>
			</defs>
			<clipPath id="SVGID_11_">
				<use xlink:href="#SVGID_10_"  style="overflow:visible;"/>
			</clipPath>
			
				<linearGradient id="SVGID_12_" gradientUnits="userSpaceOnUse" x1="-50.213" y1="588.3236" x2="-46.8538" y2="588.3236" gradientTransform="matrix(12.269 0 0 -12.269 624.9196 7271.8184)">
				<stop  offset="0" style="stop-color:#9A9EA4"/>
				<stop  offset="1" style="stop-color:#F0EFF1"/>
			</linearGradient>
			<rect x="8.9" y="22.4" class="st5" width="41.2" height="62.6"/>
		</g>
		<g>
			<defs>
				<polygon id="SVGID_13_" points="17.3,91.2 49.1,145.3 59,145.3 22,82.9 				"/>
			</defs>
			<clipPath id="SVGID_14_">
				<use xlink:href="#SVGID_13_"  style="overflow:visible;"/>
			</clipPath>
			
				<linearGradient id="SVGID_15_" gradientUnits="userSpaceOnUse" x1="-49.5389" y1="584.9304" x2="-46.1796" y2="584.9304" gradientTransform="matrix(12.3901 0 0 -12.3901 631.1253 7361.4478)">
				<stop  offset="0" style="stop-color:#F0EFF1"/>
				<stop  offset="1" style="stop-color:#9A9EA4"/>
			</linearGradient>
			<rect x="17.3" y="82.9" class="st6" width="41.6" height="62.5"/>
		</g>
		<g>
			<defs>
				<polygon id="SVGID_16_" points="61.2,136.9 66.4,145.3 129.3,145.3 134.2,136.9 				"/>
			</defs>
			<clipPath id="SVGID_17_">
				<use xlink:href="#SVGID_16_"  style="overflow:visible;"/>
			</clipPath>
			
				<linearGradient id="SVGID_18_" gradientUnits="userSpaceOnUse" x1="-39.7447" y1="587.0697" x2="-36.3854" y2="587.0697" gradientTransform="matrix(21.7476 0 0 -21.7476 925.5016 12908.4561)">
				<stop  offset="0" style="stop-color:#F0EFF1"/>
				<stop  offset="1" style="stop-color:#9A9EA4"/>
			</linearGradient>
			<rect x="61.2" y="136.9" class="st7" width="73.1" height="8.5"/>
		</g>
	</g>
</g>
</svg>
