<?xml version="1.0" encoding="utf-8"?>
<!-- Generator: Adobe Illustrator 19.2.1, SVG Export Plug-In . SVG Version: 6.00 Build 0)  -->
<svg version="1.1" id="Capa_1" xmlns="http://www.w3.org/2000/svg" xmlns:xlink="http://www.w3.org/1999/xlink" x="0px" y="0px"
	 viewBox="0 0 550 317.8" style="enable-background:new 0 0 550 317.8;" xml:space="preserve">
<style type="text/css">
	.st0{fill-rule:evenodd;clip-rule:evenodd;fill:#9A9EA4;}
	.st1{fill:#9A9EA4;}
	.st2{clip-path:url(#SVGID_2_);fill:url(#SVGID_3_);}
	.st3{clip-path:url(#SVGID_5_);fill:url(#SVGID_6_);}
	.st4{clip-path:url(#SVGID_8_);fill:url(#SVGID_9_);}
	.st5{clip-path:url(#SVGID_11_);fill:url(#SVGID_12_);}
	.st6{clip-path:url(#SVGID_14_);fill:url(#SVGID_15_);}
	.st7{clip-path:url(#SVGID_17_);fill:url(#SVGID_18_);}
</style>
<g>
	<g>
		<path class="st0" d="M47.5,250.1c0-0.3,0-0.3,0-0.5c0-0.3,0-0.5,0-0.5c0-2.4,0.3-4.4,1.1-6.4c0.8-2,1.7-3.5,3.2-5.1
			c1.5-1.5,3.1-2.4,5.1-3.5c2-0.7,4.2-0.9,6.7-0.9c2.5,0,5.2,0.3,8.3,1.2v5.1c-2.8-1.6-5.8-2.6-8.9-2.6c-2.1,0-3.9,0.7-5.5,1.7
			c-1.5,0.9-2.7,2.5-3.5,4c-0.8,1.7-1.2,3.5-1.2,5.5c0,1.8,0.3,3.2,0.7,4.8c0.5,1.5,1.6,2.7,2.5,3.9c1.1,1.3,2.3,2.3,3.8,3.1
			c1.5,0.5,3.1,0.9,5.1,0.9c2.7-0.1,5.9-1.2,9.3-2.9l0,0l-2.3,5.2c-2.6,0.8-5,1.3-7.5,1.3c-3.1,0-5.5-0.5-8-1.6
			c-2.6-1.2-4.6-2.7-6-4.7C48.5,255.9,47.7,253.3,47.5,250.1 M75.1,249c0-2.4,0.3-4.4,1.3-6.4c0.7-2,2-3.7,3.5-5.2
			c1.5-1.3,3.2-2.3,5.2-3.1c1.7-0.9,4-1.2,6-1.2c2.3,0,4.6,0.3,6.6,0.9c2,0.8,3.8,1.7,5.2,3.1c1.5,1.2,2.8,2.9,3.8,4.7
			c0.8,1.7,1.2,4,1.2,6.3c0,2.8-0.4,5.2-1.7,7.8c-1.5,2.5-3.2,4.5-5.8,6c-2.4,1.5-5.2,2.3-8.5,2.6c-3.4,0-6.3-0.8-8.9-2.3
			c-2.7-1.5-4.7-3.3-6-5.5c-1.5-2.6-2.3-4.8-2.3-7.6l0,0C75.1,249,75.1,249,75.1,249 M80.2,248.9c0.3,2.1,0.7,4.2,1.7,6.2
			c0.9,1.7,2.4,3.3,4.3,4.6c2,1.1,4,1.5,5.9,1.5c1.9,0,3.6-0.4,4.8-1.2c1.2-0.8,2.6-1.5,3.2-2.8c1.1-1.2,1.6-2.4,2-3.8
			c0.3-1.2,0.5-2.7,0.5-4.3c0-0.1,0-0.7,0-1.5c-0.3-2-0.8-4-1.7-5.8c-1.1-1.7-2.3-2.9-4-4c-1.5-1.2-3.5-1.8-5.8-1.8
			c-2,0.3-4,0.8-5.5,1.8c-1.7,1.1-3.1,2.5-4,4.3C80.6,244.1,80.2,246.4,80.2,248.9 M111.6,257.6l2.4-19.1c0,0,0-0.3,0-0.8
			c0.3-0.7,0.3-0.9,0.3-1.2c0-1.2-0.5-2-1.5-2.5l0,0h7.8c0.3,0.8,0.3,1.5,0.5,2l8.4,19.9l7.8-19.6c0.3-0.5,0.5-1.2,0.5-2.3h7.8l0,0
			c-0.8,0.3-1.2,1.3-1.5,2.5c0.3,0.3,0.3,0.5,0.3,0.9l2.7,21.3c0.3,1.1,0.3,1.9,0.5,2.3c0,0.5,0.3,1.1,0.5,1.3
			c0.4,0.4,0.7,0.7,1.5,1.2h-0.3h-8.6v-0.3c1.1-0.3,1.9-1.2,1.9-2.7c0-0.3,0-0.5,0-1.1c-0.3-0.3-0.3-0.8-0.3-0.8l-2.3-20.5
			l-10.1,26.2c-1.1-0.8-1.7-1.3-2.3-2c-0.5-0.8-0.9-1.7-1.5-2.8l-8.9-21.3l-2.7,20.8c0,0.5,0,1.1-0.3,1.3c0.3,0.9,0.3,1.5,0.5,2
			c0.3,0.4,0.7,0.7,1.2,0.9v0.3h-7.2v-0.3c0.7-0.5,1.2-1.2,1.7-2.3C111.1,260.2,111.3,259.1,111.6,257.6 M153.2,257.3V240
			c0-2,0-3.2-0.3-4c-0.3-0.9-0.7-1.5-1.7-2l0,0h8.6l0,0c-0.5,0.3-1.1,0.8-1.3,1.3c-0.1,0.1-0.4,0.9-0.4,1.7c0,0.7-0.3,1.7-0.3,2.9
			v17.3c0,1.5,0.3,2.6,0.3,3.4c0,0.7,0.3,1.5,0.4,1.7c0.3,0.4,0.8,0.7,1.3,0.9v0.3h-8.6v-0.3c1.1-0.3,1.5-0.7,1.7-1.7
			C153.2,260.7,153.2,259.4,153.2,257.3 M162.5,241.1c0-1.7,0.8-3.3,1.7-4.3c1.1-1.3,2.3-2,4-2.8c1.7-0.5,3.8-0.7,5.8-0.7
			c2,0,4.3,0.1,6.6,0.9v5.1c-0.9-1.1-2-1.9-3.2-2.3c-1.3-0.3-2.5-0.5-3.8-0.5c-1.6,0-2.8,0.3-3.8,0.8c-1.1,0.4-1.6,1.2-1.9,2.2
			c-0.1,0.3-0.1,0.8-0.1,1.1c0,1.2,0.4,2.3,1.7,3.2c0.9,0.8,2.4,1.5,4.3,2.6l3.8,1.7c1.5,0.8,2.7,1.5,4,2.8c1.2,1.2,1.7,2.4,1.7,4.2
			c0,1.7-0.8,3.6-1.7,4.8c-1.1,1.5-2.6,2.6-4.6,3.2c-2,0.8-4,1.3-6.6,1.3c-2.3,0-4.7-0.5-7.5-1.3l-1.2-5.8c1.5,1.3,2.9,2.3,4.7,2.8
			c1.5,0.7,3.4,0.9,4.8,0.9c1.7,0,3.2-0.4,4.7-1.2c1.3-0.8,2-1.7,2-3.2c0-2.3-1.5-4-4.4-5.4l-5.1-2.4c-0.9-0.3-2-1.1-2.7-1.6
			c-1.1-0.7-1.7-1.8-2.3-2.7C162.7,243.5,162.5,242.3,162.5,241.1 M188.6,257.3V240c0-2,0-3.2-0.3-4c-0.3-0.9-0.8-1.5-1.7-2l0,0h8.6
			l0,0c-0.5,0.3-1.1,0.8-1.3,1.3c-0.3,0.1-0.5,0.9-0.5,1.7c0,0.7-0.1,1.7-0.1,2.9v17.3c0,1.5,0.1,2.6,0.1,3.4c0,0.7,0.3,1.5,0.5,1.7
			c0.3,0.4,0.8,0.7,1.3,0.9v0.3h-8.6v-0.3c0.9-0.3,1.5-0.7,1.7-1.7C188.6,260.7,188.6,259.4,188.6,257.3 M198.1,249
			c0-2.4,0.3-4.4,1.2-6.4c0.8-2,2-3.7,3.6-5.2c1.5-1.3,3.2-2.3,5.2-3.1c1.7-0.9,4-1.2,6-1.2c2.3,0,4.4,0.3,6.4,0.9
			c2,0.8,3.8,1.7,5.4,3.1c1.5,1.2,2.7,2.9,3.8,4.7c0.7,1.7,1.2,4,1.2,6.3c0,2.8-0.5,5.2-1.8,7.8c-1.5,2.5-3.2,4.5-5.8,6
			c-2.5,1.5-5.2,2.3-8.6,2.6c-3.2,0-6.2-0.8-8.7-2.3c-2.8-1.5-4.8-3.3-6-5.5c-1.5-2.6-2.3-4.8-2.3-7.6l0,0
			C198.1,249,198.1,249,198.1,249 M203.1,248.9c0.3,2.1,0.8,4.2,1.9,6.2c0.9,1.7,2.4,3.3,4.2,4.6c2,1.1,4,1.5,6,1.5
			c1.7,0,3.5-0.4,4.8-1.2c1.2-0.8,2.4-1.5,3.2-2.8c1.1-1.2,1.5-2.4,2-3.8c0.3-1.2,0.5-2.7,0.5-4.3c0-0.1,0-0.7,0-1.5
			c-0.3-2-0.8-4-1.7-5.8c-1.1-1.7-2.3-2.9-4-4c-1.5-1.2-3.5-1.8-5.8-1.8c-2,0.3-4,0.8-5.5,1.8c-1.9,1.1-3.1,2.5-4,4.3
			C203.6,244.1,203.1,246.4,203.1,248.9 M235.8,258.1v-18.8c0-1.9,0-2.8-0.5-3.6c-0.3-0.4-1.1-0.9-1.7-1.7l0,0h6.4
			c0,0.3,0.5,1.1,1.6,2l16.5,20.8v-17.4c0-1.3-0.3-2.3-0.5-3.4c-0.1-0.7-0.7-1.5-1.7-2l0,0h7.5l0,0c-0.7,0.5-1.2,0.8-1.5,1.3
			c-0.3,0.1-0.5,0.7-0.7,1.5c0,0.5-0.3,1.5-0.3,2.7l0.3,25.6c-1.6-0.5-2.5-0.9-3.4-1.7c-0.7-0.7-1.7-1.5-2.4-2.5l-16.4-20.5v17.8
			c0,1.2,0,2,0.3,2.7c0.3,0.5,0.5,1.1,0.7,1.6c0.3,0.3,0.8,0.7,1.6,0.9v0.3h-8.1v-0.3c0.9-0.3,1.5-0.9,1.7-1.7
			C235.8,260.8,235.8,259.6,235.8,258.1 M280.9,258.1v-18.8c0-1.9,0-2.8-0.4-3.6c-0.3-0.4-1.1-0.9-1.7-1.7l0,0h6.4
			c0,0.3,0.5,1.1,1.5,2l16.6,20.8v-17.4c0-1.3-0.3-2.3-0.5-3.4c-0.3-0.7-0.7-1.5-1.7-2l0,0h7.5l0,0c-0.7,0.5-1.2,0.8-1.5,1.3
			c-0.3,0.1-0.5,0.7-0.8,1.5c0,0.5-0.1,1.5-0.1,2.7l0.1,25.6c-1.5-0.5-2.4-0.9-3.2-1.7c-0.8-0.7-1.7-1.5-2.5-2.5l-16.2-20.5v17.8
			c0,1.2,0,2,0.3,2.7c0.1,0.5,0.4,1.1,0.7,1.6c0.3,0.3,0.8,0.7,1.5,0.9v0.3h-7.9v-0.3c0.9-0.3,1.5-0.9,1.7-1.7
			C280.9,260.8,280.9,259.6,280.9,258.1 M314.1,257.1l7.8-19.3c0.3-0.7,0.5-1.5,0.5-2c0-0.7-0.5-1.5-1.5-1.7l0,0h7.2l10.1,24.7
			c0.5,1.2,0.9,2.1,1.5,3c0.5,0.8,1.3,1.2,2.3,1.7v0.3h-9.3v-0.3c0.9-0.3,1.5-0.7,1.5-1.5c0-0.3,0-1.1-0.5-1.7l-2.7-7.8h-11.3
			l-2.8,7.3c-0.3,0.8-0.5,1.2-0.5,1.7c0.3,1.1,0.8,1.8,1.7,2v0.3h-8.2v-0.3c0.4-0.3,1.2-0.5,1.5-0.9c0.5-0.5,0.9-1.1,1.2-1.6
			c0.3-0.4,0.5-1.2,0.8-2C313.7,258.4,313.9,257.6,314.1,257.1 M320.6,249h8.9l-4.3-11.3L320.6,249 M343.2,250.1c0-0.3,0-0.3,0-0.5
			c0-0.3,0-0.5,0-0.5c0-2.4,0.3-4.4,1.1-6.4c0.8-2,1.7-3.5,3.2-5.1c1.5-1.5,3.1-2.4,5.1-3.5c2-0.7,4.2-0.9,6.7-0.9
			c2.6,0,5.2,0.3,8.3,1.2v5.1c-2.8-1.6-5.8-2.6-8.9-2.6c-2.1,0-4,0.7-5.5,1.7c-1.5,0.9-2.7,2.5-3.5,4c-0.8,1.7-1.2,3.5-1.2,5.5
			c0,1.8,0.3,3.2,0.7,4.8c0.5,1.5,1.6,2.7,2.5,3.9c1.1,1.3,2.3,2.3,3.8,3.1c1.5,0.5,3.1,0.9,5.1,0.9c2.7-0.1,5.9-1.2,9.3-2.9l0,0
			l-2.3,5.2c-2.5,0.8-5.1,1.3-7.5,1.3c-3.1,0-5.5-0.5-8-1.6c-2.6-1.2-4.6-2.7-6-4.7C344.3,255.9,343.4,253.3,343.2,250.1
			 M373.1,257.3V240c0-2,0-3.2-0.3-4c-0.3-0.9-0.7-1.5-1.7-2l0,0h8.6l0,0c-0.5,0.3-1.1,0.8-1.3,1.3c-0.3,0.1-0.4,0.9-0.4,1.7
			c0,0.7-0.3,1.7-0.3,2.9v17.3c0,1.5,0.3,2.6,0.3,3.4c0,0.7,0.1,1.5,0.4,1.7c0.3,0.4,0.8,0.7,1.3,0.9v0.3h-8.6v-0.3
			c1.1-0.3,1.5-0.7,1.7-1.7C373.1,260.7,373.1,259.4,373.1,257.3 M382.6,249c0-2.4,0.3-4.4,1.3-6.4c0.7-2,1.9-3.7,3.5-5.2
			c1.5-1.3,3.2-2.3,5.2-3.1c1.7-0.9,4-1.2,6-1.2c2.3,0,4.6,0.3,6.6,0.9c2,0.8,3.8,1.7,5.2,3.1c1.5,1.2,2.7,2.9,3.8,4.7
			c0.8,1.7,1.2,4,1.2,6.3c0,2.8-0.4,5.2-1.7,7.8c-1.5,2.5-3.2,4.5-5.8,6c-2.6,1.5-5.2,2.3-8.5,2.6c-3.4,0-6.3-0.8-8.9-2.3
			c-2.8-1.5-4.8-3.3-6-5.5c-1.5-2.6-2.3-4.8-2.3-7.6l0,0C382.6,249,382.6,249,382.6,249 M387.7,248.9c0.1,2.1,0.7,4.2,1.7,6.2
			c0.9,1.7,2.4,3.3,4.2,4.6c2,1.1,4,1.5,6,1.5c1.7,0,3.6-0.4,4.8-1.2c1.2-0.8,2.5-1.5,3.2-2.8c1.1-1.2,1.5-2.4,2-3.8
			c0.3-1.2,0.5-2.7,0.5-4.3c0-0.1,0-0.7,0-1.5c-0.3-2-0.8-4-1.7-5.8c-1.1-1.7-2.3-2.9-4-4c-1.5-1.2-3.5-1.8-5.8-1.8
			c-2,0.3-4,0.8-5.5,1.8c-1.7,1.1-3.1,2.5-4,4.3C388.1,244.1,387.7,246.4,387.7,248.9 M420.3,258.1v-18.8c0-1.9,0-2.8-0.5-3.6
			c-0.3-0.4-0.9-0.9-1.7-1.7l0,0h6.6c0,0.3,0.4,1.1,1.5,2l16.5,20.8v-17.4c0-1.3-0.3-2.3-0.4-3.4c-0.3-0.7-0.8-1.5-1.9-2l0,0h7.6
			l0,0c-0.8,0.5-1.3,0.8-1.6,1.3c-0.3,0.1-0.4,0.7-0.7,1.5c0,0.5-0.3,1.5-0.3,2.7l0.3,25.6c-1.5-0.5-2.5-0.9-3.3-1.7
			c-0.7-0.7-1.7-1.5-2.4-2.5l-16.4-20.5v17.8c0,1.2,0,2,0.3,2.7c0.3,0.5,0.5,1.1,0.8,1.6c0.1,0.3,0.7,0.7,1.5,0.9v0.3H418v-0.3
			c0.9-0.3,1.5-0.9,1.7-1.7C420.3,260.8,420.3,259.6,420.3,258.1 M453.5,257.1l7.8-19.3c0.3-0.7,0.4-1.5,0.4-2
			c0-0.7-0.4-1.5-1.5-1.7l0,0h7.4l9.9,24.7c0.5,1.2,1.1,2.1,1.6,3c0.4,0.8,1.2,1.2,2.2,1.7v0.3H472v-0.3c1.1-0.3,1.5-0.7,1.5-1.5
			c0-0.3,0-1.1-0.4-1.7l-2.8-7.8H459l-2.8,7.3c-0.3,0.8-0.4,1.2-0.4,1.7c0.1,1.1,0.7,1.8,1.7,2v0.3h-8.3v-0.3
			c0.5-0.3,1.2-0.5,1.5-0.9c0.5-0.5,1.1-1.1,1.3-1.6c0.1-0.4,0.4-1.2,0.7-2C452.9,258.4,453.2,257.6,453.5,257.1 M459.9,249h8.9
			l-4.3-11.3L459.9,249 M485.5,258.1v-18.6c0-1.5,0-2.7-0.3-3.5c-0.3-0.9-0.7-1.5-1.7-2l0,0h8.8l0,0c-0.8,0.3-1.5,1.1-1.7,1.7
			c-0.3,0.8-0.3,1.7-0.3,2.8c0,0.3,0,0.5,0,0.9v20.7c0.7,0,2,0,3.8,0.3c1.5,0,2.5,0,2.7,0c1.6,0,2.8,0,3.7-0.5
			c1.3-0.3,2.6-1.1,4-2.3l0.3,0.3l-2.4,5.8h-18.9v-0.3c1.5-0.5,2-2,2-4.6V258.1 M16.6,302.3V282c0-1.1,0-1.9-0.3-2.8
			c-0.1-0.8-0.7-1.2-1.7-1.7h11.1c2.4,0,4.7,0.5,6.4,1.5c1.7,1.2,2.5,2.8,2.5,4.8c0,3-1.5,5-4.6,6c2.6,0.4,4.3,1.5,5.6,3
			c1.2,1.5,1.7,3.2,1.7,5.5c-0.3,2.8-1.6,5.1-3.8,6.6c-2.3,1.5-5.1,2.3-8.6,2.3H14.6c0.8-0.5,1.1-0.8,1.3-1.1
			c0.3-0.3,0.4-0.7,0.7-1.2C16.6,304.3,16.6,303.4,16.6,302.3 M21.4,303.5l3.8,0.3c2.6,0,4.3-0.4,5.5-1.5c1.2-0.9,2-2.5,2-4
			c0-1.2-0.5-2.5-1.2-3.5c-0.8-0.9-1.7-1.7-3.1-2.3c-1.2-0.3-2.4-0.5-3.8-0.5h-3.2V303.5 M21.4,289.6h1.5c1.2,0,2.3-0.3,3.2-0.8
			c1.3-0.3,2-0.8,2.8-1.5c0.5-0.8,0.9-1.7,0.9-2.8c-0.1-1.5-0.7-2.7-1.7-3.5c-0.9-0.8-2.1-0.9-3.8-0.9l-3,0.1V289.6 M43.3,300.6
			l7.8-19.3c0.3-0.8,0.4-1.5,0.4-2c0-0.8-0.4-1.5-1.5-1.7l0,0h7.2L67.3,302c0.5,1.3,1.1,2.3,1.5,3.1c0.5,0.7,1.3,1.2,2.3,1.7v0.3
			h-9.3v-0.3c1.1-0.3,1.5-0.8,1.5-1.5c0-0.3,0-1.1-0.4-1.9l-2.8-7.8H48.8l-2.8,7.4c-0.3,0.7-0.5,1.2-0.5,1.7c0.3,0.9,0.8,1.7,1.9,2
			v0.3H39v-0.3c0.5-0.3,1.2-0.5,1.5-1.1c0.5-0.4,1.1-0.9,1.2-1.5c0.3-0.5,0.5-1.2,0.8-2C42.8,301.8,43,301.1,43.3,300.6 M49.7,292.5
			h8.9l-4.3-11.3L49.7,292.5 M75.4,301.6v-18.9c0-1.7,0-2.7-0.5-3.5c-0.1-0.5-0.9-0.9-1.7-1.7l0,0h6.6c0,0.3,0.5,0.9,1.5,2
			l16.6,20.8v-17.6c0-1.2-0.3-2.3-0.5-3.2c-0.3-0.8-0.8-1.5-1.7-2l0,0h7.5l0,0c-0.8,0.5-1.2,0.8-1.5,1.2c-0.3,0.3-0.5,0.8-0.8,1.5
			c0,0.5-0.3,1.6-0.3,2.8l0.3,25.6c-1.5-0.5-2.6-1.1-3.2-1.8c-0.8-0.8-1.7-1.5-2.6-2.5l-16.4-20.5v17.9c0,1.2,0,1.9,0.3,2.7
			c0.3,0.5,0.5,1.1,0.8,1.5c0.3,0.3,0.8,0.8,1.5,1.1v0.3h-8v-0.3c1.1-0.3,1.6-1.1,1.7-1.7C75.4,304.3,75.4,303.1,75.4,301.6
			 M105,293.6c0-0.3,0-0.3,0-0.5c0-0.3,0-0.5,0-0.5c0-2.5,0.3-4.6,0.9-6.4c0.8-2,1.7-3.6,3.4-5.1c1.5-1.5,3-2.5,5-3.5
			c2-0.8,4.3-1.1,6.8-1.1c2.4,0,5.2,0.3,8.2,1.3v5c-2.7-1.5-5.8-2.5-8.7-2.5c-2.3,0-4,0.8-5.5,1.9c-1.5,0.9-2.8,2.4-3.5,4
			c-0.8,1.7-1.3,3.5-1.3,5.5c0,1.7,0.3,3.2,0.8,4.7c0.5,1.5,1.5,2.8,2.5,4c0.9,1.3,2.2,2.3,3.8,3.1c1.5,0.4,3,0.9,5,0.9
			c2.8-0.3,6-1.2,9.3-3l0,0l-2.3,5.2c-2.4,0.8-5,1.2-7.5,1.2c-3,0-5.5-0.4-8.1-1.5c-2.4-1.2-4.4-2.8-6-4.7
			C106,299.4,105.3,296.8,105,293.6 M135.6,300.6l7.8-19.3c0.3-0.8,0.5-1.5,0.5-2c0-0.8-0.5-1.5-1.5-1.7l0,0h7.2l10.1,24.6
			c0.4,1.3,0.9,2.3,1.5,3.1c0.5,0.7,1.2,1.2,2.3,1.7v0.3h-9.3v-0.3c0.9-0.3,1.5-0.8,1.5-1.5c0-0.3,0-1.1-0.5-1.9l-2.8-7.8h-11.3
			l-2.7,7.4c-0.3,0.7-0.5,1.2-0.5,1.7c0.3,0.9,0.8,1.7,1.7,2v0.3h-8.3v-0.3c0.5-0.3,1.3-0.5,1.6-1.1c0.4-0.4,0.9-0.9,1.2-1.5
			c0.3-0.5,0.5-1.2,0.8-2C135.1,301.8,135.3,301.1,135.6,300.6 M142.2,292.5h8.7l-4.3-11.3L142.2,292.5 M167.8,300.8v-17.3
			c0-1.3,0-2.3,0-3.1c0-0.7-0.3-1.2-0.5-1.7c-0.3-0.4-0.8-0.7-1.5-0.9l0.3-0.3h10.5c3.1,0,5.5,0.8,7,2.3c1.6,1.5,2.3,3.5,2.3,5.8
			c0,1.5-0.7,3-2,4.3c-1.2,1.2-2.7,2.1-5,3l6.7,8.6c0.5,0.4,1.3,1.5,2.5,2.4c1.3,1.1,2.5,2,4.6,3.4h-4.8c-0.9,0-2-0.3-2.7-0.8
			c-0.8-0.3-1.6-1-2.3-2l-5.2-6.3l-4-6.2c1.2-0.3,2.4-0.8,3.8-1.3c0.9-0.5,2-1.2,2.7-2.3c0.8-0.7,1.3-2,1.3-3.2
			c-0.3-1.7-0.8-2.8-1.7-3.5c-1.3-0.8-2.5-1.3-4.3-1.3c-0.8,0-1.7,0.3-2.8,0.5v20.1c0,1.5,0,2.6,0,3.2c0.3,0.8,0.3,1.3,0.5,1.7
			c0.5,0.5,0.8,0.8,1.5,1.3l0,0h-8.5v-0.3c0.7-0.3,1.2-1.1,1.5-1.7C167.8,304,167.8,302.8,167.8,300.8 M191.8,300.8v-17.3
			c0-2,0-3.4-0.3-4c-0.3-1.1-0.7-1.5-1.7-2l0,0h8.6l0,0c-0.5,0.3-1.1,0.8-1.2,1.2c-0.3,0.3-0.5,1.1-0.5,1.7c0,0.8-0.3,1.7-0.3,3.1
			v17.3c0,1.5,0.3,2.6,0.3,3.2c0,0.8,0.3,1.5,0.5,1.7c0.1,0.5,0.7,0.8,1.2,1.1v0.3h-8.6v-0.3c1.1-0.3,1.5-0.8,1.7-1.7
			C191.8,304,191.8,302.8,191.8,300.8 M204.4,300.6l7.8-19.3c0.3-0.8,0.5-1.5,0.5-2c0-0.8-0.5-1.5-1.6-1.7l0,0h7.4l9.9,24.6
			c0.5,1.3,1.1,2.3,1.6,3.1c0.4,0.7,1.2,1.2,2.1,1.7v0.3H223v-0.3c1.1-0.3,1.5-0.8,1.5-1.5c0-0.3,0-1.1-0.4-1.9l-2.8-7.8h-11.3
			l-2.8,7.4c-0.3,0.7-0.4,1.2-0.4,1.7c0.1,0.9,0.7,1.7,1.7,2v0.3h-8.3v-0.3c0.5-0.3,1.2-0.5,1.5-1.1c0.5-0.4,1.1-0.9,1.3-1.5
			c0.1-0.5,0.4-1.2,0.7-2C203.9,301.8,204.2,301.1,204.4,300.6 M210.9,292.5h8.9l-4.3-11.3L210.9,292.5 M255.6,302.6V294l-8.5-13.6
			c-0.3-0.4-0.8-0.9-1.3-1.5c-0.4-0.7-1.2-1.2-1.9-1.5h4.2c0.8,0,1.6,0,1.7,0.3c0.5,0,0.8,0.3,1.1,0.5c0.3,0.1,0.5,0.4,0.8,0.7
			c0,0.3,0.1,0.5,0.4,1.1l6.3,10.5l6-8.7c0.5-0.5,0.8-1.3,0.8-2c0-1.1-0.8-1.7-1.9-2.3l0,0h8.1L260.1,294v7.7c0,1.2,0.3,2.4,0.5,3.2
			c0.3,0.5,0.7,1.2,1.7,2v0.3h-8.9v-0.3c1.1-0.5,1.6-1.1,1.9-1.5C255.4,304.6,255.6,303.5,255.6,302.6 M285.8,302.6L285.8,302.6
			v-20.8c0-2.5-0.8-3.8-2-4.3H295c3.5,0,6.8,0.5,9.3,2c2.6,1.2,4.6,2.9,5.8,5.2c1.3,2.3,1.9,5.1,1.9,7.8c0,2.5-0.8,4.8-2,7.1
			c-1.3,2.1-3.4,3.9-5.8,5.5c-2.5,1.2-5.8,2-9.7,2h-10.7v-0.3C285,306.1,285.8,304.6,285.8,302.6 M290.3,303.5
			c0.7,0,1.7,0.3,3.2,0.3c2.3,0,4.3-0.3,6-0.9c2-0.8,3.5-1.7,5-3.5c1.3-1.6,2-3.6,2-5.8c0-0.3,0-0.5,0-0.8c0,0,0-0.3,0-0.5
			c0-3-0.4-5.2-1.7-7c-1.2-1.7-2.7-3.1-4.6-3.8c-1.7-0.5-3.8-0.8-5.8-0.8c-1.2,0-2.7,0-4.2,0.3V303.5 M316.6,302.6L316.6,302.6
			v-19.9c0-1.5,0-2.5-0.3-3.5c-0.3-0.8-0.7-1.5-1.7-1.7h14.9c0.1,0,0.4,0,0.7,0c0.5,0,1.1-0.3,1.2-0.3h0.3v5.2h-0.3
			c-0.4-0.7-1.2-1.2-2.1-1.5c-0.8-0.3-2-0.3-3.4-0.3c-0.9,0-1.5,0-2,0c-0.4,0-0.9,0-1.2,0c-0.3,0-0.5,0-0.8,0
			c-0.1,0-0.4,0.3-0.4,0.3v8.6h4.2c0.5,0,0.8,0,1.1,0c1.2,0,1.7-0.3,2.3-0.5l0,0v5l0,0c-0.5-0.9-2-1.5-4-1.5h-3.5v10.9
			c0.9,0,2.1,0.1,3.5,0.1c1.2,0.3,2,0.3,2.7,0.3c0.3,0,0.5,0,0.8,0c2.8,0,5.2-0.9,7.2-2.7l0,0l-2,6h-19.1v-0.3
			C316.1,306.3,316.6,305.1,316.6,302.6 M362.8,307.5c-1.2-0.7-2.2-1.5-2.7-2.2c-0.5-0.5-1.1-1.6-1.5-3.1l-7.4-20.1
			c-0.4-1.2-0.9-2.1-1.2-2.7c-0.5-0.8-1.1-1.2-1.7-1.7v-0.3h6.7c0,0.3,0,0.5-0.3,0.5c0.3,0.7,0.5,1.7,0.8,3l7.8,20.8l7-18.3
			c0.5-1.3,0.8-2.3,0.8-3.4c0-1.5-0.5-2.2-1.7-2.4v-0.3h6.8l-11.8,31.1L362.8,307.5 M380.3,300.6l7.8-19.3c0.3-0.8,0.5-1.5,0.5-2
			c0-0.8-0.5-1.5-1.5-1.7l0,0h7.2l10.1,24.6c0.5,1.3,0.9,2.3,1.5,3.1c0.5,0.7,1.3,1.2,2.3,1.7v0.3H399v-0.3c0.9-0.3,1.5-0.8,1.5-1.5
			c0-0.3,0-1.1-0.5-1.9l-2.7-7.8h-11.4l-2.7,7.4c-0.3,0.7-0.5,1.2-0.5,1.7c0.3,0.9,0.8,1.7,1.7,2v0.3h-8.2v-0.3
			c0.4-0.3,1.2-0.5,1.5-1.1c0.4-0.4,0.9-0.9,1.2-1.5c0.3-0.5,0.5-1.2,0.8-2C379.9,301.8,380.1,301.1,380.3,300.6 M386.9,292.5h8.7
			l-4.2-11.3L386.9,292.5 M412.5,301.6V283c0-1.5,0-2.8-0.3-3.5c-0.3-1.1-0.8-1.5-1.7-2l0,0h8.7l0,0c-0.7,0.3-1.5,0.9-1.7,1.7
			c-0.3,0.8-0.3,1.7-0.3,2.8c0,0.1,0,0.4,0,0.9v20.5c0.8,0,2,0,3.8,0.3c1.6,0,2.6,0,2.8,0c1.5,0,2.8,0,3.8-0.4
			c1.2-0.3,2.5-1.1,4-2.3l0.3,0.3l-2.5,5.8h-18.8v-0.3c1.5-0.5,2-2,2-4.6V301.6 M433.6,292.5c0-2.5,0.3-4.6,1.2-6.4
			c0.8-2,2-3.9,3.5-5.4c1.6-1.2,3.3-2.3,5.4-3c1.8-1.1,4-1.3,6-1.3c2.3,0,4.4,0.3,6.4,1.1c2,0.8,3.8,1.7,5.4,2.9
			c1.5,1.3,2.7,3.1,3.8,4.8c0.7,1.7,1.2,4,1.2,6.3c0,2.7-0.5,5.2-1.7,7.8c-1.5,2.4-3.2,4.4-5.8,6c-2.5,1.5-5.2,2.2-8.6,2.4
			c-3.2,0-6.2-0.7-8.7-2.3c-2.8-1.5-4.8-3.2-6-5.5c-1.5-2.4-2.3-4.7-2.3-7.5l0,0C433.6,292.5,433.6,292.5,433.6,292.5 M438.6,292.2
			c0.3,2.3,0.8,4.3,1.7,6.3c1.1,1.7,2.5,3.2,4.3,4.6c2,0.9,4,1.5,6,1.5c1.7,0,3.5-0.5,4.8-1.2c1.2-0.8,2.4-1.6,3.2-2.8
			c1.1-1.2,1.5-2.6,2-3.8c0.3-1.2,0.5-2.8,0.5-4.3c0-0.3,0-0.7,0-1.5c-0.3-2-0.8-4-1.7-5.8c-1.1-1.7-2.3-3.1-4-4
			c-1.6-1.2-3.5-1.7-5.8-1.7c-2,0.3-4,0.7-5.5,1.7c-1.9,0.9-3.1,2.5-4,4.3C439.1,287.5,438.6,289.8,438.6,292.2 M471.3,300.8v-17.3
			c0-1.3,0-2.3,0-3.1c0-0.7-0.3-1.2-0.5-1.7c-0.3-0.4-0.8-0.7-1.5-0.9l0.1-0.3H480c3.1,0,5.5,0.8,7,2.3c1.6,1.5,2.3,3.5,2.3,5.8
			c0,1.5-0.7,3-2,4.3c-1.2,1.2-2.7,2.1-5,3l6.7,8.6c0.5,0.4,1.3,1.5,2.5,2.4c1.2,1.1,2.6,2,4.6,3.4h-4.8c-0.9,0-2-0.3-2.7-0.8
			c-0.8-0.3-1.6-1-2.3-2l-5.2-6.3l-4-6.2c1.2-0.3,2.4-0.8,3.8-1.3c0.9-0.5,2-1.2,2.7-2.3c0.8-0.7,1.3-2,1.3-3.2
			c-0.3-1.7-0.8-2.8-1.7-3.5c-1.3-0.8-2.5-1.3-4.3-1.3c-0.8,0-1.7,0.3-2.8,0.5v20.1c0,1.5,0,2.6,0,3.2c0.3,0.8,0.3,1.3,0.5,1.7
			c0.5,0.5,0.7,0.8,1.5,1.3l0,0h-8.6v-0.3c0.8-0.3,1.3-1.1,1.6-1.7C471.3,304,471.3,302.8,471.3,300.8 M495.6,302.6L495.6,302.6
			v-19.9c0-1.5,0-2.5-0.3-3.5c-0.3-0.8-0.7-1.5-1.7-1.7h14.8c0.3,0,0.5,0,0.8,0c0.5,0,1.1-0.3,1.2-0.3h0.3v5.2h-0.3
			c-0.4-0.7-1.2-1.2-2.2-1.5c-0.8-0.3-2-0.3-3.4-0.3c-0.9,0-1.5,0-2,0c-0.4,0-0.9,0-1.2,0c-0.3,0-0.5,0-0.8,0
			c-0.3,0-0.4,0.3-0.4,0.3v8.6h4.2c0.5,0,0.8,0,1.1,0c1.2,0,1.7-0.3,2.3-0.5l0,0v5l0,0c-0.5-0.9-2-1.5-4-1.5h-3.5v10.9
			c0.9,0,2.1,0.1,3.5,0.1c1.2,0.3,2,0.3,2.7,0.3c0.3,0,0.5,0,0.8,0c2.8,0,5.2-0.9,7.2-2.7l0,0l-2,6h-19.1v-0.3
			C495.1,306.3,495.6,305.1,495.6,302.6 M516.4,284.5c0-1.7,0.8-3.2,1.7-4.3c1.1-1.2,2.3-1.9,4-2.7c1.7-0.5,3.8-0.8,5.8-0.8
			c2,0,4.3,0.3,6.6,1.1v5c-0.9-0.9-2-1.7-3.2-2.3c-1.3-0.3-2.6-0.4-3.8-0.4c-1.6,0-2.8,0.1-3.8,0.7c-1.1,0.5-1.6,1.3-1.7,2.3
			c-0.3,0.3-0.3,0.8-0.3,1.1c0,1.2,0.4,2.1,1.7,3.2c0.9,0.7,2.4,1.5,4.3,2.5l3.8,1.7c1.5,0.7,2.7,1.5,4,2.7c1.2,1.3,1.8,2.6,1.8,4.3
			c0,1.7-0.8,3.5-1.8,4.8c-1.1,1.5-2.5,2.4-4.6,3.2c-2,0.8-4,1.2-6.6,1.2c-2.3,0-4.7-0.4-7.5-1.2l-1.2-5.8c1.5,1.2,3,2.3,4.7,2.7
			c1.6,0.8,3.4,1.1,4.8,1.1c1.7,0,3.2-0.5,4.7-1.2c1.3-0.8,2-1.7,2-3.4c0-2.3-1.5-4-4.4-5.2l-5.1-2.6c-0.9-0.3-2-0.9-2.7-1.5
			c-1.1-0.8-1.7-1.7-2.3-2.8C516.7,287,516.4,285.8,516.4,284.5"/>
		<g>
			<path class="st1" d="M214.2,231.4c2.5-1,7-3.4,8.7-4.9h0.1c0.6,0.4,1.5,1.6,1.5,2.2c0,1.4-7.1,3.2-10.3,3.4V231.4z"/>
		</g>
	</g>
	<g>
		<path class="st1" d="M234.9,124.6l-3.3,11.5c-2.1,0.7-4.2,1.2-6.3,1.4c-2.2,0.3-4.5,0.4-7.1,0.4c-3.7,0-6.9-0.5-9.8-1.4
			c-2.8-1-5.6-2.7-8.1-5.3c-2.6-2.6-4.5-5.6-5.8-9.1c-1.3-3.5-2-7.3-2-11.4c0-3.7,0.6-7.3,1.9-10.9c1.3-3.5,3-6.5,5.4-8.9
			c2.3-2.4,5.1-4.2,8.4-5.3c3.2-1.1,6.6-1.7,10.2-1.7l10.1,1l0.5,11.1c-3.4-2.7-7.1-4.1-11.2-4.1c-4.2,0-7.2,1.7-9,5.1
			c-1.8,3.4-2.7,7.7-2.7,13.1c0,5.8,1.2,10.5,3.6,14.1c2.4,3.7,6,5.5,10.7,5.5c2.4,0,4.8-0.4,7.1-1.3
			C229.9,127.5,232.3,126.2,234.9,124.6"/>
		<path class="st1" d="M275,96.5v41.9c-1.1,0-2.4-0.3-3.8-0.9c-1.3-0.6-2.8-1.4-4.5-2.3c-1.6-0.9-3-1.9-4.1-3
			c-1.1-1.1-2.9-3.6-5.4-7.5l-12.9-20.1l-0.2,20.7c0,3,0.1,5.2,0.4,6.7c0.3,1.5,1.1,3,2.5,4.5l-13,0.2c1.3-1.6,2.2-3.1,2.5-4.7
			c0.3-1.6,0.5-3.8,0.5-6.7V98.2c0-3.3-0.2-5.8-0.6-7.3c-0.4-1.5-1.5-3.4-3.3-5.7l14-0.2l20.7,31.8V96.5c0-2.8-0.2-5-0.5-6.6
			c-0.3-1.6-1.2-3.2-2.5-4.6l13.2-0.2c-1.3,1.6-2.1,3.2-2.5,4.8C275.2,91.5,275,93.7,275,96.5"/>
		<path class="st1" d="M340.9,125.4l-3.7,13c-1.5-0.6-2.9-1.2-4.4-1.7c-1.5-0.6-3-1.4-4.4-2.4c-1.5-1.1-2.6-2.2-3.4-3.5
			c-0.8-1.3-1.6-3.2-2.4-5.7l-10.2-33c-0.5-1.6-1-2.9-1.5-3.9c-0.4-1-1.1-2-1.8-2.9l15.1-0.2l-0.1,0.6c0,1.1,0.3,2.7,0.9,4.9
			c0.6,2.2,1,3.5,1.1,4.1l8.5,29.1l7.9-28.7c0.3-1.2,0.6-2.1,0.7-2.8c0.1-0.6,0.2-1.2,0.2-1.8c0-1.2-0.3-2.2-0.7-3
			c-0.5-0.8-1.3-1.5-2.2-2.2l12-0.2L340.9,125.4z"/>
		<path class="st1" d="M297.6,103.2c-0.9,1.4-2.1,2.1-3.6,2.1c-0.3,0-0.7-0.1-1.3-0.3V92.8c0.7-0.3,1.3-0.5,2-0.5
			c1.4,0,2.4,0.6,3.1,1.8c0.7,1.2,1.1,2.7,1.1,4.4C298.9,100.3,298.5,101.9,297.6,103.2 M311.5,112c-1.8-2.5-4.2-4-7.2-4.5
			c2.3-0.8,4.1-2.1,5.4-3.8c1.3-1.7,2-3.8,2-6.3c0-2-0.4-3.8-1.2-5.4c-0.8-1.6-1.9-3-3.3-4.3c-1.4-1.2-2.8-2-4.2-2.3
			c-1.4-0.3-3.2-0.4-5.5-0.4l-20.4,0.2c1.1,0.7,1.8,1.6,2.2,2.7c0.4,1.1,0.7,3,0.7,5.7v2.6v29.6v2.6c0,2-0.2,3.7-0.5,5.1
			c-0.4,1.4-1.2,2.6-2.4,3.6h20c2.9,0,5.2-0.2,7-0.7c1.8-0.5,3.9-1.9,6.4-4.4c2.5-2.4,3.7-6.1,3.7-11
			C314.2,117.5,313.3,114.5,311.5,112 M300.3,127c-1,1.7-2.5,2.5-4.6,2.5c-1.2,0-2.2-0.3-3-0.9v-16.5h1.6c5,0,7.5,2.9,7.5,8.6
			C301.8,123.2,301.3,125.3,300.3,127"/>
		<g>
			<defs>
				<polygon id="SVGID_1_" points="330.7,186.4 344.5,186.4 388.4,111.1 381.7,99.2 				"/>
			</defs>
			<clipPath id="SVGID_2_">
				<use xlink:href="#SVGID_1_"  style="overflow:visible;"/>
			</clipPath>
			
				<linearGradient id="SVGID_3_" gradientUnits="userSpaceOnUse" x1="-26.9046" y1="582.1288" x2="-22.2011" y2="582.1288" gradientTransform="matrix(12.2666 0 0 -12.2666 660.7025 7283.5791)">
				<stop  offset="0" style="stop-color:#F0EFF1"/>
				<stop  offset="1" style="stop-color:#9A9EA4"/>
			</linearGradient>
			<rect x="330.7" y="99.2" class="st2" width="57.7" height="87.2"/>
		</g>
		<g>
			<defs>
				<polygon id="SVGID_4_" points="317.4,14.8 369.6,102.2 376.5,90.8 332.2,14.8 				"/>
			</defs>
			<clipPath id="SVGID_5_">
				<use xlink:href="#SVGID_4_"  style="overflow:visible;"/>
			</clipPath>
			
				<linearGradient id="SVGID_6_" gradientUnits="userSpaceOnUse" x1="-27.8394" y1="587.6134" x2="-23.1365" y2="587.6134" gradientTransform="matrix(12.5645 0 0 -12.5645 667.1992 7441.5859)">
				<stop  offset="0" style="stop-color:#9A9EA4"/>
				<stop  offset="1" style="stop-color:#F0EFF1"/>
			</linearGradient>
			<rect x="317.4" y="14.8" class="st3" width="59.1" height="87.3"/>
		</g>
		<g>
			<defs>
				<polygon id="SVGID_7_" points="219.3,14.8 212.6,26.6 314.2,26.6 307.1,14.8 				"/>
			</defs>
			<clipPath id="SVGID_8_">
				<use xlink:href="#SVGID_7_"  style="overflow:visible;"/>
			</clipPath>
			
				<linearGradient id="SVGID_9_" gradientUnits="userSpaceOnUse" x1="-32.5421" y1="590.8506" x2="-27.8385" y2="590.8506" gradientTransform="matrix(21.5952 0 0 -21.5952 915.3532 12780.25)">
				<stop  offset="0" style="stop-color:#9A9EA4"/>
				<stop  offset="1" style="stop-color:#F0EFF1"/>
			</linearGradient>
			<rect x="212.6" y="14.8" class="st4" width="101.6" height="11.7"/>
		</g>
		<g>
			<defs>
				<polygon id="SVGID_10_" points="207.4,35.4 163.5,111.1 170.1,123 221.3,35.4 				"/>
			</defs>
			<clipPath id="SVGID_11_">
				<use xlink:href="#SVGID_10_"  style="overflow:visible;"/>
			</clipPath>
			
				<linearGradient id="SVGID_12_" gradientUnits="userSpaceOnUse" x1="-37.6046" y1="586.2438" x2="-32.9011" y2="586.2438" gradientTransform="matrix(12.269 0 0 -12.269 624.9196 7271.8184)">
				<stop  offset="0" style="stop-color:#9A9EA4"/>
				<stop  offset="1" style="stop-color:#F0EFF1"/>
			</linearGradient>
			<rect x="163.5" y="35.4" class="st5" width="57.7" height="87.6"/>
		</g>
		<g>
			<defs>
				<polygon id="SVGID_13_" points="175.4,131.7 219.9,207.5 233.7,207.5 182,120.1 				"/>
			</defs>
			<clipPath id="SVGID_14_">
				<use xlink:href="#SVGID_13_"  style="overflow:visible;"/>
			</clipPath>
			
				<linearGradient id="SVGID_15_" gradientUnits="userSpaceOnUse" x1="-36.7801" y1="580.9192" x2="-32.0763" y2="580.9192" gradientTransform="matrix(12.3901 0 0 -12.3901 631.1253 7361.4478)">
				<stop  offset="0" style="stop-color:#F0EFF1"/>
				<stop  offset="1" style="stop-color:#9A9EA4"/>
			</linearGradient>
			<rect x="175.4" y="120.1" class="st6" width="58.3" height="87.5"/>
		</g>
		<g>
			<defs>
				<polygon id="SVGID_16_" points="236.8,195.7 244.1,207.5 332.2,207.5 339.1,195.7 				"/>
			</defs>
			<clipPath id="SVGID_17_">
				<use xlink:href="#SVGID_16_"  style="overflow:visible;"/>
			</clipPath>
			
				<linearGradient id="SVGID_18_" gradientUnits="userSpaceOnUse" x1="-31.6691" y1="584.2878" x2="-26.9657" y2="584.2878" gradientTransform="matrix(21.7476 0 0 -21.7476 925.5016 12908.4561)">
				<stop  offset="0" style="stop-color:#F0EFF1"/>
				<stop  offset="1" style="stop-color:#9A9EA4"/>
			</linearGradient>
			<rect x="236.8" y="195.7" class="st7" width="102.3" height="11.9"/>
		</g>
	</g>
</g>
</svg>
