<?xml version="1.0" encoding="utf-8"?>
<!-- Generator: Adobe Illustrator 16.0.0, SVG Export Plug-In . SVG Version: 6.00 Build 0)  -->
<!DOCTYPE svg PUBLIC "-//W3C//DTD SVG 1.1//EN" "http://www.w3.org/Graphics/SVG/1.1/DTD/svg11.dtd">
<svg version="1.1" id="Capa_1" xmlns:ev="http://www.w3.org/2001/xml-events"
	 xmlns="http://www.w3.org/2000/svg" xmlns:xlink="http://www.w3.org/1999/xlink" x="0px" y="0px" width="50px" height="50px"
	 viewBox="0 0 50 50" enable-background="new 0 0 50 50" xml:space="preserve">
<path d="M48.302,40.66C48.207,40.66,48.207,40.66,48.302,40.66C48.207,40.66,48.207,40.66,48.302,40.66
	c-0.565,0.566-1.321,0.85-2.075,0.85H2.83c-0.754,0-1.509-0.283-1.981-0.85l0,0l0,0C0.283,40.094,0,39.434,0,38.68V10.377
	c0-0.755,0.283-1.415,0.849-1.981l0,0l0,0C1.321,7.83,2.076,7.547,2.83,7.547h43.396c0.754,0,1.51,0.283,1.98,0.849l0,0l0,0
	c0.566,0.566,0.85,1.226,0.85,1.981V38.68C49.057,39.434,48.773,40.094,48.302,40.66z M17.642,25.85L3.302,39.623H45.85
	L31.415,25.85l-2.265,2.17c-1.32,1.226-2.924,1.887-4.528,1.887c-1.604,0-3.302-0.661-4.528-1.887L17.642,25.85z M1.887,10.755
	v27.642l14.434-13.868L1.887,10.755z M3.302,9.434l18.019,17.264c1.792,1.792,4.716,1.792,6.509,0L45.755,9.434H3.302z
	 M47.17,10.755L32.736,24.528L47.17,38.302V10.755z"/>
</svg>
