<?xml version="1.0" encoding="utf-8"?>
<!-- Generator: Adobe Illustrator 16.0.0, SVG Export Plug-In . SVG Version: 6.00 Build 0)  -->
<!DOCTYPE svg PUBLIC "-//W3C//DTD SVG 1.1//EN" "http://www.w3.org/Graphics/SVG/1.1/DTD/svg11.dtd">
<svg version="1.1" id="Capa_1" xmlns:ev="http://www.w3.org/2001/xml-events"
	 xmlns="http://www.w3.org/2000/svg" xmlns:xlink="http://www.w3.org/1999/xlink" x="0px" y="0px" width="50px" height="50px"
	 viewBox="0 0 50 50" enable-background="new 0 0 50 50" xml:space="preserve">
<path d="M44.736,49.123H4.386C1.93,49.123,0,47.193,0,44.736V4.386C0,1.93,1.93,0,4.386,0h40.351c2.457,0,4.387,1.93,4.387,4.386
	v40.351C49.123,47.193,47.193,49.123,44.736,49.123z M47.369,4.386c0-1.491-1.141-2.631-2.633-2.631H4.386
	c-1.491,0-2.631,1.14-2.631,2.631v40.351c0,1.492,1.14,2.632,2.631,2.632h40.351c1.492,0,2.633-1.14,2.633-2.632V4.386z
	 M38.597,31.491v9.737c0,0.525-0.351,0.877-0.878,0.877c-0.525,0-0.877-0.352-0.877-0.877v-9.737
	c-2.018-0.438-3.508-2.192-3.508-4.298s1.49-3.86,3.508-4.299v-15c0-0.526,0.352-0.877,0.877-0.877c0.527,0,0.878,0.351,0.878,0.877
	v15c2.018,0.439,3.509,2.193,3.509,4.299S40.614,31.053,38.597,31.491z M37.719,24.562c-1.49,0-2.631,1.14-2.631,2.632
	c0,1.49,1.141,2.631,2.631,2.631c1.492,0,2.633-1.141,2.633-2.631C40.352,25.701,39.211,24.562,37.719,24.562z M29.824,19.21v22.018
	c0,0.525-0.351,0.877-0.877,0.877s-0.877-0.352-0.877-0.877V19.21c-2.018-0.438-3.509-2.193-3.509-4.298
	c0-2.105,1.491-3.859,3.509-4.298v-2.72c0-0.526,0.351-0.877,0.877-0.877s0.877,0.351,0.877,0.877v2.72
	c2.018,0.438,3.51,2.193,3.51,4.298C33.334,17.018,31.842,18.772,29.824,19.21z M28.947,12.281c-1.491,0-2.631,1.14-2.631,2.631
	s1.14,2.632,2.631,2.632s2.632-1.141,2.632-2.632S30.438,12.281,28.947,12.281z M21.053,38.509v2.72
	c0,0.525-0.351,0.877-0.877,0.877s-0.877-0.352-0.877-0.877v-2.72c-2.018-0.438-3.509-2.192-3.509-4.298s1.491-3.859,3.509-4.299
	V7.895c0-0.526,0.351-0.877,0.877-0.877s0.877,0.351,0.877,0.877v22.018c2.018,0.439,3.509,2.193,3.509,4.299
	S23.07,38.07,21.053,38.509z M20.175,31.579c-1.491,0-2.631,1.14-2.631,2.632c0,1.49,1.14,2.631,2.631,2.631
	s2.632-1.141,2.632-2.631C22.807,32.719,21.667,31.579,20.175,31.579z M12.281,24.474v16.755c0,0.525-0.351,0.877-0.877,0.877
	s-0.877-0.352-0.877-0.877V24.474c-2.018-0.438-3.509-2.193-3.509-4.298c0-2.105,1.491-3.859,3.509-4.298V7.895
	c0-0.526,0.351-0.877,0.877-0.877s0.877,0.351,0.877,0.877v7.982c2.018,0.439,3.509,2.193,3.509,4.298
	C15.79,22.281,14.298,24.035,12.281,24.474z M11.403,17.544c-1.491,0-2.631,1.14-2.631,2.631s1.14,2.632,2.631,2.632
	s2.632-1.141,2.632-2.632S12.895,17.544,11.403,17.544z"/>
</svg>
