<?xml version="1.0" encoding="utf-8"?>
<!-- Generator: Adobe Illustrator 16.0.0, SVG Export Plug-In . SVG Version: 6.00 Build 0)  -->
<!DOCTYPE svg PUBLIC "-//W3C//DTD SVG 1.1//EN" "http://www.w3.org/Graphics/SVG/1.1/DTD/svg11.dtd">
<svg version="1.1" id="Layer_1" xmlns="http://www.w3.org/2000/svg" xmlns:xlink="http://www.w3.org/1999/xlink" x="0px" y="0px"
	 width="50px" height="50px" viewBox="0 0 50 50" enable-background="new 0 0 50 50" xml:space="preserve">
<g id="XMLID_3_">
	<path id="XMLID_8_" d="M27.041,3.193c-2.783,0-5.469,0.605-7.969,1.787C12.52,8.027,8.281,14.658,8.281,21.885v2.734l-3.525,6.729
		c-0.576,1.113-0.615,2.236-0.098,3.096s1.533,1.357,2.793,1.357h0.83v5.703c0,2.539,2.07,4.609,4.609,4.609
		c0.039,0,0.088,0,0.127-0.01l5.137-0.762h0.01h0.01l10.449-1.836c2.48-0.332,4.229-2.598,3.955-5.078l0.029-9.746
		c0-0.479-0.391-0.869-0.869-0.879l0,0c-0.479,0-0.869,0.391-0.869,0.869l-0.029,9.766c0,0.02,0,0.039,0.01,0.059
		c0,0.02,0,0.039,0,0.059c0.205,1.563-0.898,3.008-2.471,3.213c-0.01,0-0.029,0-0.039,0.01l-10.459,1.836l-5.049,0.752
		c-1.553-0.029-2.803-1.309-2.803-2.861v-6.582c0-0.479-0.391-0.869-0.869-0.869H7.451c-0.625,0-1.104-0.186-1.299-0.508
		s-0.146-0.83,0.146-1.387l3.623-6.924c0.068-0.127,0.098-0.264,0.098-0.4v-2.949c0-6.543,3.838-12.559,9.785-15.322
		c2.266-1.074,4.697-1.621,7.227-1.621c9.326,0,16.914,7.588,16.914,16.914c0,4.727-2.002,9.268-5.488,12.471
		c-0.176,0.166-0.283,0.4-0.283,0.645v5.684v5.283c0,0.479,0.391,0.869,0.869,0.869s0.869-0.391,0.869-0.869v-5.283v-5.303
		c3.672-3.516,5.771-8.408,5.771-13.486C45.703,11.572,37.334,3.193,27.041,3.193z"/>
	<g id="XMLID_1177_">
		<path id="XMLID_5_" d="M31.748,29.551c-4.063,0-7.363-3.301-7.363-7.363s3.301-7.363,7.363-7.363s7.363,3.301,7.363,7.363
			S35.811,29.551,31.748,29.551z M31.748,16.572c-3.096,0-5.615,2.52-5.615,5.615s2.52,5.615,5.615,5.615s5.615-2.52,5.615-5.615
			S34.844,16.572,31.748,16.572z"/>
	</g>
</g>
</svg>
