<?xml version="1.0" ?><!DOCTYPE svg  PUBLIC '-//W3C//DTD SVG 1.1//EN'  'http://www.w3.org/Graphics/SVG/1.1/DTD/svg11.dtd'><svg enable-background="new 0 0 64 64" height="64px" id="Layer_1" version="1.1" viewBox="0 0 64 64" width="64px" xml:space="preserve" xmlns="http://www.w3.org/2000/svg" xmlns:xlink="http://www.w3.org/1999/xlink"><path d="  M39.352,17H23.648c-2.736,0-4.126,1.852-4.81,4.501L12.645,45.5c-0.327,1.267,0.629,2.5,1.937,2.5h34.837  c1.307,0,2.263-1.233,1.937-2.5l-6.193-23.999C44.478,18.852,42.088,17,39.352,17z" fill="none" id="XMLID_390_" stroke="#000000" stroke-linecap="round" stroke-linejoin="round" stroke-miterlimit="10" stroke-width="2"/><path d="  M53,48H11c-1.104,0-2,0.896-2,2v3c0,1.104,0.896,2,2,2h42c1.104,0,2-0.896,2-2v-3C55,48.896,54.104,48,53,48z" fill="none" id="XMLID_180_" stroke="#000000" stroke-linecap="round" stroke-linejoin="round" stroke-miterlimit="10" stroke-width="2"/><line fill="none" id="XMLID_210_" stroke="#000000" stroke-linecap="round" stroke-linejoin="round" stroke-miterlimit="10" stroke-width="2" x1="32" x2="32" y1="48" y2="34"/><circle cx="32" cy="29" fill="none" id="XMLID_211_" r="5" stroke="#000000" stroke-linecap="round" stroke-linejoin="round" stroke-miterlimit="10" stroke-width="2"/><line fill="none" id="XMLID_212_" stroke="#000000" stroke-linecap="round" stroke-linejoin="round" stroke-miterlimit="10" stroke-width="2" x1="15" x2="11" y1="20" y2="20"/><line fill="none" id="XMLID_213_" stroke="#000000" stroke-linecap="round" stroke-linejoin="round" stroke-miterlimit="10" stroke-width="2" x1="22" x2="22" y1="13" y2="9"/><line fill="none" id="XMLID_217_" stroke="#000000" stroke-linecap="round" stroke-linejoin="round" stroke-miterlimit="10" stroke-width="2" x1="16" x2="13" y1="14" y2="11"/><line fill="none" id="XMLID_222_" stroke="#000000" stroke-linecap="round" stroke-linejoin="round" stroke-miterlimit="10" stroke-width="2" x1="49" x2="53" y1="20" y2="20"/><line fill="none" id="XMLID_221_" stroke="#000000" stroke-linecap="round" stroke-linejoin="round" stroke-miterlimit="10" stroke-width="2" x1="42" x2="42" y1="13" y2="9"/><line fill="none" id="XMLID_218_" stroke="#000000" stroke-linecap="round" stroke-linejoin="round" stroke-miterlimit="10" stroke-width="2" x1="48" x2="51" y1="14" y2="11"/><line fill="none" id="XMLID_227_" stroke="#000000" stroke-linecap="round" stroke-linejoin="round" stroke-miterlimit="10" stroke-width="2" x1="21.158" x2="21.947" y1="29.001" y2="26"/><line fill="none" id="XMLID_240_" stroke="#000000" stroke-linecap="round" stroke-linejoin="round" stroke-miterlimit="10" stroke-width="2" x1="18" x2="20.368" y1="41" y2="32"/></svg>